<?xml version="1.0" encoding="utf-8"?>
<!-- Generator: Adobe Illustrator 24.1.1, SVG Export Plug-In . SVG Version: 6.00 Build 0)  -->
<svg version="1.1" id="Capa_1" xmlns="http://www.w3.org/2000/svg"
 width="166.000000pt" height="253.000000pt" viewBox="0 0 166.000000 253.000000"
 preserveAspectRatio="xMidYMid meet">
<style type="text/css">
	.st0{fill:#202020;}
	.st1{fill:#F9F9F9;}
	.st2{fill:#0B0807;}
	.st3{fill:#0B0808;}
	.st4{fill:#E1B394;}
	.st5{fill:#E2B399;}
	.st6{fill:#F9B684;}
	.st7{fill:#F2B47F;}
	.st8{fill:#080606;}
	.st9{fill:#0D0A0B;}
	.st10{fill:#1C100E;}
	.st11{fill:#201312;}
	.st12{fill:#222222;}
	.st13{fill:#1B0A06;}
	.st14{fill:#C9C9C9;}
	.st15{fill:#C8C8C8;}
	.st16{fill:#F9B788;}
	.st17{fill:#272B2C;}
	.st18{fill:#191A19;}
	.st19{fill:#F7B688;}
	.st20{fill:#150403;}
	.st21{fill:#CF8161;}
	.st22{fill:#E8B396;}
	.st23{fill:#D0A58D;}
	.st24{fill:#6D2F1E;}
	.st25{fill:#DFB49E;}
	.st26{fill:#CA7C60;}
	.st27{fill:#EBB497;}
	.st28{fill:#636566;}
	.st29{fill:#E9B799;}
	.st30{fill:#2A160F;}
	.st31{fill:#2A180E;}
	.st32{fill:#E6B999;}
	.st33{fill:#1E0A07;}
	.st34{fill:#251B0F;}
	.st35{fill:#D78C63;}
	.st36{fill:#7A431F;}
	.st37{fill:#D99268;}
	.st38{fill:#E4B48E;}
	.st39{fill:#DEB18F;}
	.st40{fill:#7F4628;}
	.st41{fill:#803D18;}
	.st42{fill:#E3986F;}
	.st43{fill:#42281F;}
	.st44{fill:#48210B;}
	.st45{fill:#F5B78A;}
	.st46{fill:#1B0805;}
	.st47{fill:#E8B79C;}
	.st48{fill:#CDA9A0;}
	.st49{fill:#CEB795;}
	.st50{fill:#DBBB8F;}
	.st51{fill:#020201;}
	.st52{fill:#956E56;}
	.st53{fill:#A26C56;}
	.st54{fill:#504032;}
	.st55{fill:#F7F0E9;}
	.st56{fill:#F8F2EF;}
	.st57{fill:#EAE6E3;}
	.st58{fill:#533E34;}
	.st59{fill:#F4F0EB;}
	.st60{fill:#F4F0E8;}
	.st61{fill:#EEE6E8;}
	.st62{fill:#2B0805;}
	.st63{fill:#580505;}
	.st64{fill:#E7E0DE;}
	.st65{fill:#EADEE1;}
	.st66{fill:#190906;}
</style>
<path class="st0" d="M8.1,252.7c-8,0-8,0-8-8c0-80.2,0-160.4-0.1-240.6C0,0.7,0.7,0,4.1,0c52.6,0.1,105.2,0.1,157.8,0
	c3.4,0,4.1,0.7,4.1,4.1c-0.1,80.9-0.1,161.7,0.1,242.6c0,5.1-1,7.1-6.1,6c-0.6-0.1-1.3,0-2,0c-2.2-2.8-1.5-6.1-0.2-8.5
	c2.8-5.2,2.1-10.7,1.7-16c-0.8-9.6-1.5-19.1-3.6-28.6c-1.7-7.7-6.1-12.6-13.9-14.5c-5.8-1.4-11.6-2.8-17.3-4.4
	c-1.7-0.5-4.2-0.2-4.6-2.9c5.6-5.5,9.8-11.9,12.3-19.4c2.8-6.9,6.2-13.6,7.6-21c0.5-2.5,2.4-3.8,4.3-5.2c10.5-7.7,17-26.3,13.6-38.8
	c-0.7-2.4-1.4-4.8-3.7-6.2c-0.5-0.2-0.9-0.4-1.4-0.7c-4.1-1.1-4.2-4.1-3.7-7.5c2-13.4-0.1-26.3-4.5-38.9c-1.5-4.2-3.9-8.1-6.9-11.4
	C124.6,12.4,107.9,4.2,87.3,3.4C70.1,2.7,54.4,6.7,40.5,17.1c-15.9,11.1-23.3,26.7-24,45.6c-0.2,6.3-0.4,12.6,0.3,18.8
	c0.2,1.5,0.2,3-1.3,4c-5.2,1.1-7.5,4.7-7.9,9.6c-1.1,10.9,1,21.2,7.2,30.4c1,1.5,2,3.3,3.6,4.1c6,3.1,7.7,8.6,9.4,14.5
	c1.7,5.9,4,11.7,6.8,17.1c0.8,1.8,1.3,3.7,2.4,5.4c1.6,2.9,3.7,5.5,5.4,8.3c2,3.1,1.4,4.8-2.1,5.9c-4.4,1.3-8.9,2.4-13.5,3.3
	c-4.9,0.9-9.6,2.5-12.8,6.7c-1.1,1.7-2.5,3.1-3.3,5c-2.7,9.1-3,18.6-4.2,28c-0.4,3.1-0.2,6.3-0.8,9.4c-0.6,2.9-0.6,6,2,8.3
	C8.6,245.3,9.5,249,8.1,252.7z"/>
<path class="st1" d="M138.9,252.7H26.1c-2.7-4.5-1.6-9.4-1.3-14.1c0.6-9.4,1.8-18.8,4.1-27.8c-2.9,8-4.4,16.4-4.4,24.8
	c0,6.7-1.9,8.2-8.6,6.9c-1.3-0.2-2.6-0.5-3.9-0.8c-3.6-0.8-5.4-2.9-5.3-6.7c0.1-3.3-0.3-6.7,1.5-9.7c4.6-0.1,3.8-2.8,3.1-5.9
	c-0.8-3.4-1.6-6.8-1.6-10.3c0.2-6.3,0.8-12.4,4.4-17.8c2.3-2.5,5.2-3.9,8.5-4.9c5.8-1.8,11.8-3,17.7-4.7c4.2-1.3,7-0.3,8.7,3.8
	c0.6,1.5,1.7,2.8,2.5,4.3c7.5,13.7,18.2,24.8,29.3,35.5c1.7,1.6,2.7,1.5,4.5,0c10.9-8.7,19.3-19.5,26.3-31.4
	c1.4-3.6,3.4-6.8,5.6-9.9c1.1-1.5,2.1-3,4.3-2.9c1,0.1,2,0.4,2.9,0.5c4.4,0.9,8.7,2.1,13,3.2c1.9,0.6,3.8,1.3,5.7,1.9
	c3.9,1.5,7.3,3.7,9.7,7.3c2.6,5.6,3.6,11.8,3,17.9c-0.6,2.4-1.4,4.8-1.7,7.2c-0.4,3-1,6,3.5,6.4c0.9,2.6,0.6,5.3,0.9,7.9
	c0.8,6.3,0,7.4-6.5,8.6c-0.5,0.1-1,0.2-1.5,0.3c-8.6,1.7-10.4,0.4-10.2-8.1c0.2-9.4-2.3-18.1-5.1-26.4c3.4,13.3,5.7,27.2,4.8,41.6
	C140.1,250.7,139.7,251.8,138.9,252.7z"/>
<path class="st2" d="M123.9,182.6c-0.8,0.1-1.5,0.2-2.1-0.5c-0.7-1.4-2.8-1-3.3-2.7c-0.3-1-0.3-2.1,0.6-2.7c0.7-0.5,1.6-0.3,1.8,0.8
	c-1,0.9-0.6,1.1,0.5,1.3c7.1,1.6,14.2,3.3,21.2,5.1c7.5,1.9,12.5,6.7,14.2,14.3c2.8,13,3.4,26.3,4.5,39.5c0.2,2.8-2.4,3.4-2.6,5.5
	c-0.3,3.1-0.6,6.3-0.9,9.4h-4c-0.3-0.4-0.5-0.8-0.5-1.3c-0.1-1.9,1.2-4.5-0.8-5.4c-2.5-1.1-5.6-0.5-8,0.5c-2.6,1.1,0.1,4.4-1.7,6.1
	h-4c0.7-15.9-1.4-31.5-4.7-47.1c5.4,6.3,6.7,14,7.6,21.8c0.4,3.3,0.7,6.6,0.4,9.9c-0.3,4,1.4,4.7,4.9,4.4c10.2-1,10.6-1.3,10-11.5
	c-0.1-1.8-0.2-3.6-0.4-5.4c-3.3-3.7-1.8-8-1.6-12.1c-0.2-6.3-0.9-12.5-3.3-18.4c-1.3-4.4-4.6-6.2-8.8-6.7c-1.8-0.2-3.6-0.6-5.2-1.7
	C133.4,183.8,128.8,182.3,123.9,182.6z"/>
<path class="st3" d="M9.2,224.8c-1,3.7-0.9,7.6-1.2,11.4c-0.2,2.8,1.1,3.8,3.4,4.4c0.2,0,0.3,0.1,0.5,0.1
	c10.8,2.3,10.7,2.3,11.3-8.8c0.4-7,1.4-13.8,4-20.3c0.8-2.1,1.4-4.4,4.4-6.1c-4,15.4-5.8,31.3-5.5,47.3h-3c-0.3-0.4-0.8-0.8-0.8-1.2
	c0.2-4.6-2.6-5.5-6.6-5.9c-2.9-0.3-3.6,0.4-3.4,3c0.1,1.5,0,3-1.2,4.2h-3l-1.2-10.5c-2.1-2.1-2-4.8-1.8-7.4
	c1.1-13.4,2.1-26.9,4.9-40.1c-0.3-2.1,2.7-2.1,2.7-4c0.4-0.3,0.9-0.4,1.5-0.4c0.8,0.3,1.4,0.7,1,1.7c-3.1,5.5-4.1,11.4-4.2,17.6
	c-1.2,3.2,0.6,6.5-0.1,9.7C10.4,221.1,10.7,223.2,9.2,224.8z"/>
<path class="st4" d="M142.9,252.7c-0.2-1.5-0.4-2.9-0.6-4.4c-0.5-2.8,0.5-4.1,3.4-3.7c1,0.1,2,0.1,3,0c7.3-0.7,7.5-0.5,5.4,7.3
	c-4.4-5.1-5.5-5-9.1,0.8L142.9,252.7z"/>
<path class="st5" d="M11.1,252.7c-0.1-2.9-1.3-6.6,0-8.4c1.5-2.1,5.1,0.9,7.9,0.4c3.4-0.6,4.4,0.9,4,4.1c-0.2,1.3,0.1,2.6,0.1,3.9
	h-2c-0.4-0.6,0,0.2-0.3-0.4c-3.8-5.8-5.3-5.8-8.7,0.4H11.1z"/>
<path class="st6" d="M12.1,252.7c0.1-2.7-0.8-6,3.7-6c4.2,0,5.5,2.2,5.3,6H12.1z"/>
<path class="st7" d="M144.9,252.7c0.1-2.6-0.4-5.8,3.5-5.9c3.1,0,6,0.9,5.6,5.1c0.2,0.2,0.1,0.6-0.1,0.8c0,0,0,0,0,0H144.9z"/>
<path class="st8" d="M15.1,191.9l-1-1.1c1.6-4.1,5.5-5.1,9.1-6.2c5.7-1.7,11.7-2.1,17.3-4.1c4-1.4,4.4-2.6,1.7-5.9
	c-2.1-2.6-4.3-5-6.3-7.7c-1.1-1.3-1.9-2.9-2.1-4.6c-4-9.5-7-19.3-10.3-29c-0.5-1.5-0.8-2.9-0.3-4.4c1-1.9,2.4-1.8,3.9-0.6
	c1.2,1.5,1.6,3.4,1.7,5.1c0.3,6.1,2.2,11.7,4.7,16.9c0,1,1.1,0.4,0.4,0.5c-0.2,0-0.3-0.1-0.3-0.3c-0.2-1-0.5-2.1,0.7-2.6
	c0.9-0.4,1.5,0.4,2.1,1c0.8,0.9,1.1,2,1.5,3.1c3.1,10.4,8.1,19.5,16.9,26.3c0.2-3.3-1.4-6.5-1.7-9.8c-0.1-1.4-0.5-3.4,1.4-3.7
	c1.9-0.3,2.1,1.7,2.4,3.1c0.8,4.2,1.8,8.4,3.3,12.5c0.5,1.2,0.5,2.5,2.7,1.6c2.2-0.9,2.8,1.6,3.2,2.9c1.4,4.5,4.9,6.9,8.3,9.6
	c6.8,5.5,14,2.7,19.1-3.2c1-1.1,1.5-2.6,2.7-3.6c2-1.8,3.2-1.2,3.9,1.8c2.3-3.3,4.4-6.1,5.9-9.4c0.7-1.5,0.9-4.1,3.3-3.6
	c2.3,0.5,1.2,3.1,2,5c5.9-9.1,13.1-17.2,14.8-28.2c0.2-1.4,0.6-3.2,2.4-3.4c1-0.1,1.4,1.2,1.3,2c7-11,8.6-23.5,8.7-36.4
	c1.1-13.1,2.2-26.3-1.2-39.2c-1.6-6.2-1.9-12.5-2.8-18.7c-0.2-2-0.2-4,0.1-6c0.2-1.1,0.5-2.5,1.7-2.6c1.2-0.2,1.7,1.2,2.2,2.2
	c0.8,1.6,1.6,3.1,2.2,4.8c1.5,7.9,2.2,16.1,4.9,23.3c-0.4-8.1,0.4-16.8-1.3-25.3c-1.1-5.6-2.2-11-5.3-15.9c-0.9-1.5-1.8-3.2-1.8-5.1
	c0.1-0.5,0.4-1,0.8-1.3c4.9,1.4,5.8,5.9,7.2,9.7c4.5,12.5,5.3,25.5,4,38.7c-0.6,5.5-0.5,5.5,4.6,5.7l0,0c0.6,1,0.4,1.8-0.4,2.6
	c-1.5,0.8-3.5,1.1-4,3.2c-1,3.4-1.7,6.8-2.7,10.2c-1.8,7.6-1,15.4-2.6,23c0.4,1.7-2.1,4.1,1.3,5c0.4,0.6,0.4,1.5-0.2,1.7
	c-4.8,2.3-5.6,7-6.6,11.4c-1.3,5.6-4.5,10.6-5.8,16.2c-2,6.6-5.6,12.4-10,17.7c-0.5,0.6-1.3,0.9-2.1,0.8c-2.3-0.9-2.2,0.4-1.4,1.7
	c0.6,1,2.2,1.4,2.4,2.8c-1.1,0.1-2.2-0.1-2.9,1.2c-2,3.9-4.2,7.6-6.3,11.4c-1.5,0.1-2.1-0.8-2.3-2.1c0-0.1,0-0.3,0-0.5
	c0-0.4,0.2-1.2-0.6-0.6c-4.9,4.3-10.7,7.1-16.2,10.5c-7.8,3-15.5,3.3-23.1-0.7c-2.8-1.5-5.9-2.4-8.5-4.2c-2-2.3-4.5-4-6.8-6
	c-0.7-0.6-1.3-0.9-1.9,0.1c-1.2,1.3-1.8-0.1-2.7-0.5c-2.5-2.6-2.6-7.7-6-8.4c-3.2-0.7-7,1.2-10.5,2.2
	C27.7,186.6,20.6,187.3,15.1,191.9z"/>
<path class="st9" d="M139.8,56c-1.6-1.6-1.9-3.8-3.1-5.5c-1-1.5-0.6,0.6-1,0.9c-2.5-0.6-3-2.9-4.1-4.7c-3-4.7-7.1-7.1-12.7-7.3
	c-6.8-0.3-13.2,1.6-19.5,3.6c-12.7,4-25.2,3.1-37.6-1.4c-8.5-3.1-16.8-3.6-24.6,2.1C31.4,48,29.5,54,29.4,61c0,4.6,0.6,9.4-2.4,13.4
	c-5.6,4.5-3.5,10.6-2.8,16c0.3,2.6,0.3,5.2-0.1,7.8c-0.2,1.2-0.7,2.3-2,2.6c-1.6,0.4-1.9-1.1-2.3-2.1c-0.5-1.4-1.5-2.6-2.1-3.9
	c-0.4-0.8-0.8-1.7-1.2-2.6c-0.4-1.5-1.1-2.8-2.1-4.1c-1-1.4-0.7-2.5,0.6-3.4c0.8-8-0.6-16.1,0.1-24.2C16.8,43.5,23,28.9,36.7,18
	c1-0.8,2.2-1.3,3.3-2c0.9,0.8,1,1.9,0.9,3c-1.3,3.6-3.9,6.3-6.7,8.5C26.9,33.5,23.9,42,22,50.4c-1.8,8.1-3.9,16.5-1.8,24.7
	c1.8-7.6,3-15.3,3.4-23.1c0.7-13.8,19.3-25.8,31.6-21c5.3,2.1,10.6,4.3,16.1,6.1c7.8,2.5,15.3,2.8,22.8-0.6
	c9.2-4.2,18.7-6.3,28.8-5.7C134.3,31.4,144.2,46.3,139.8,56z"/>
<path class="st8" d="M40,19v-3C53.8,5.4,69.5,1.9,86.6,2.2c18.8,0.3,34.4,7.3,47.5,20.5c1.5,1.5,2.6,3.4,3.9,5.1
	c0.3,1.4,2.3,2.9-0.1,4.3l0,0c-2.5,0.5-3.2-1.7-4.5-3c-5.2-5.4-10.1-11.2-17.4-14c-10-6.7-21.3-7.9-32.8-8
	C69.4,6.9,56.6,10.3,45.1,18C43.4,18.7,42.1,20.5,40,19z"/>
<path class="st10" d="M15.1,84.9c-0.5,1-0.8,2,0,2.9c-5.3,5.3-5.4,11.8-4.1,18.6c1.2,6.4,2.9,12.7,7.1,17.9c1.3,1.7,2.6,3.5,4.9,4
	c0.4,0,0.9,0.3,1.2,0.6c1.5,9.7,5,18.7,8.4,27.7c0.7,1.8,1.9,3.5,1.4,5.6c-4.2-7.2-7.2-14.9-8.8-23.1c-0.6-2.7-1.6-4.7-4.3-6.1
	c-5.9-3.1-9-8.8-11.2-14.7c-3.4-9-5.3-18.2-2.1-27.7C8.6,87,10.9,84.7,15.1,84.9z"/>
<path class="st11" d="M133,159.1c1.3-8.3,5.6-15.7,7.3-23.9c0.5-2.4,4.6-2.2,4.4-5.4c-0.2-1.7,1-2.7,1.8-3.9
	c8-11.3,11.5-23.3,6.2-36.8c-0.1-0.3-0.1-0.7,0-1c0.9-0.5,1.1-1.3,1.3-2.2c4.5,1.8,5.3,6,5.5,9.8c0.7,15.4-2.3,29.4-16.3,38.6
	c-1.5,1-2,2.4-2.4,4.1C139,145.6,136.6,152.6,133,159.1z"/>
<path class="st11" d="M137.9,32c1-1.4-0.2-2.9,0.1-4.3c7.3,8.1,10.2,17.9,11.6,28.3c1.1,8.2,1.8,16.5,0.1,24.7
	c-0.9,4.1,2.5,3.6,4.2,5c-0.9,0.3-1.9,0.7-2.8,0.9c-2.8,0.6-3.5-0.1-3.1-3.2c1.8-14.1,1.2-28.2-3.3-41.8
	C143.6,37.9,141.7,34.2,137.9,32z"/>
<path class="st12" d="M36,166.8c2.7,2.5,5.5,4.8,7.9,7.5c2.8,3.1,2.1,4.9-1.9,6.5c-5.6,2.2-11.6,2.5-17.3,4.1
	c-4,1.1-7.7,2.7-10.6,5.9l-1.5-0.2c2.4-3.9,6.2-5.7,10.5-6.7c6.7-1.6,13.4-3.3,20.3-5C41.4,174.2,37.1,171.5,36,166.8z"/>
<path class="st12" d="M10,194.7c-1.2,10.4-2.3,20.9-3.5,31.3c-0.6,5.4-1,10.8,0.4,16.2c-1.7-0.6-2.7-1.6-2.6-3.6
	c0.7-14.2,1.9-28.3,4.8-42.2C9.2,195.7,9.7,195.2,10,194.7z"/>
<path class="st13" d="M111,192.9l1.7,1.8c-7.1,12.1-15.8,22.8-26.8,31.7c-1.7,1.4-2.8,2.4-5,0.5c-11.8-10.6-22.4-22.1-30.2-36
	c0.9,0,1.9,0.9,2.5-0.5c3.6,0.9,4.2,4.6,6.3,6.9c0.5,0.8,1,1.6,1.5,2.3c5.4,8,12.6,14.4,19.3,21.2c2.2,2.2,4.2,2.3,6.4,0.1
	c6.5-6.4,13-12.7,17.8-20.5C106.8,198.1,107,193.9,111,192.9z"/>
<path class="st14" d="M9.2,224.8c-0.1-5.2,0.6-10.2,1.7-15.3c0.7,4.5,1.6,9.1,2.1,13.6c0.2,1.4,2.2,3.3-0.2,4.3
	C10.8,228.3,10.5,225.7,9.2,224.8z"/>
<path class="st15" d="M155.1,212.7c1.4,3.9,0.9,8.1,1.6,12.1c-1.3,0.9-1.7,3.8-4,2.5c-1.7-0.9-0.1-2.6,0-4
	C153,219.7,152.6,215.9,155.1,212.7z"/>
<path class="st8" d="M123.9,182.6c-0.2-0.7-0.7-1.9,0.6-1.7c4.6,1,9.1,2.2,13.6,3.5c1.8,0.6,0.9,1.1-0.3,1.4L123.9,182.6z"/>
<path class="st8" d="M142.9,187.6c3.4-2,8.4,1.8,8.8,6.7C149.3,191.4,146.5,188.9,142.9,187.6z"/>
<path class="st16" d="M26.1,74c2.3-3.9,1.9-8.3,1.9-12.6c0.3-17.8,13.5-27.6,30.6-22.4c9.2,2.8,18.2,6,28.1,5.1
	c5.3-0.5,10.4-2.1,15.5-3.4c2.2-0.6,4.4-1.3,6.7-1.8c14.5-3.3,20.5-0.6,26.8,12.5c0.1,9.8,2.2,19.3,4,28.9c2.2,11.9,1.2,24.2,0,36.3
	c-0.6,5.5-1.3,11-3.1,16.3c-1,3-2.3,5.9-5.8,6.8c-1.7,0.5-3.3-1.9-5.3,0.3c-1.2,1.3-3.3-0.7-4.8-1.5c-5.4-5-11.8-6.3-18.9-4.8
	c-1.1,0.3-2.3,0.2-3.4-0.2c-1-0.2-0.4-2.8-2.8-1.4c-2.2,1.3-5.1-1.1-7.6,0.5c-3.4,2.5-6.9,3-10.4,0.2c-1.2-1-2.5-1.2-4.2-0.9
	c-5.3,0.9-5.6,0.6-5.5-5c-1.2,2,1.3,4.3-0.3,6.5c-1.8,0.9-3.6,0.4-5.3,0c-8.2-1.8-14.2,2.1-19.7,7.5c-3.1,1.3-5.6-1.7-8.6-1.3
	c-2-1-1.5-3.2-2.2-4.7c-1-4.2-2.5-8.2-5.2-11.7c-0.5-0.7-0.8-1.5-1-2.3c-1.6-7.5-2.8-15-1.7-22.7c0.9-5.8-0.8-11.5-0.3-17.3
	C24,78.2,24.4,76,26.1,74z"/>
<path class="st17" d="M117.2,15.1c4.2-0.2,6.7,2.8,9.4,5.3c3.9,3.7,7.6,7.8,11.3,11.7c8.1,13.7,9.6,28.8,9,44.3
	c-0.1,2,0.3,4-1.5,5.8c-3.7-8.4-5-17.2-5.6-26.2c0.5-9.7-2.7-17.5-11.4-22.5c-1-0.6-2.1-1.5-3.1-1.4c-7.8,0.8-15.6-1.2-23.5,2.9
	c-7.7,4-16.5,7.2-25.6,4.8c-5.1-1.3-10.1-3.9-15-5.5c-5.6-1.9-11.8-4.9-19.2-1.7c-8.8,3.8-15.1,8.7-16.8,18.1
	c-1.3,7.1-1.6,14.4-3,21.6c-0.5,2.5-1.4,4.6-2.9,7c-2.2-15.5,0.1-29.9,6.7-43.7c3.2-6.8,10.1-10.4,14-16.5c1.7,0.2,2.6-1.7,4.1-1.9
	c5.5-0.9,9.8-4.6,15-6.2C72.5,6.8,86,5.8,99.8,8.4C105.9,9.5,111.9,11.8,117.2,15.1z"/>
<path class="st18" d="M42,140.9c4.7-8,11.9-10.1,20.5-8.8c1.8,0.3,3.6,0.5,5.3,0.7c0.4-0.3,1-0.4,1.5-0.1c2.8,0.6,5.7-0.6,8.4,0.5
	c3.5,2.4,7,2.5,10.5,0c1.7-0.5,3.5-0.6,5.3-0.3c1.5,0.4,3-0.2,4.5,0c2.3-0.3,4.5-0.5,6.8-0.8c6.6-0.9,12.3,1,16.7,6.1
	c2.1,1.4,2.8,3.9,4.5,5.8c1.8-1.3,1.7-4.1,3.9-4.9c2.8,0.2,3.4-2.1,4.4-4c3-5.8,3.8-12.2,5.4-18.4c-0.2,13.7-2.3,26.8-10.6,38.7
	c-0.2-1.7-0.3-3.1-0.4-4.5c-2.7,13.3-10.4,23.7-19,34.2c-1.3-3,1.5-5.5-0.9-8.2c-2.6,5.8-5.2,11.2-10.2,15.6c-0.8-1.8,1-3.3-0.5-5.3
	c-4.4,6.7-9.6,13.6-18.5,11.3c-7.8-2-13.7-7.5-15.9-16c-1.3,0.8-0.2,2.9-2,2.8c-1.6-0.1-2-1.7-2.4-2.9c-1.8-5.5-3.5-11.1-4.7-16.8
	c-0.8,5.3,2,10.3,1.7,15.7c-11.6-8.1-17.5-19.8-21.1-33.7c-2,2.7,0.8,4.6-0.6,6.3c-5.6-7.4-6.9-16.2-7.6-25.1c-1.3-2.3-5.5-4.7,0-7
	l1,1c1.8,4,2.7,8.4,4.9,12.2c0.3,1.3,0.6,2.5,0.9,3.8c1.6,0.6,2.9,1.6,4.2,2.6C39.8,143.2,40.8,142.2,42,140.9z"/>
<path class="st19" d="M60.2,199.8l-1.5-1.8c0.5-1.7,1.1-3.4,3.4-2.2c7.8,3.6,14.9,9,24.4,7.3c2.6-0.5,5-1.4,7.5-2.2
	c3.3-0.2,6.4-2.9,9.9-1.3c0.7,1.3-0.2,2.2-0.9,3.1c-4,5.4-8.4,10.6-13.2,15.4c-4.1,4.3-9.3,4.3-13.3-0.4c-4.2-4.9-9.4-8.9-12.9-14.4
	C62.8,201.8,61.5,200.8,60.2,199.8z"/>
<path class="st20" d="M27,121.9c-3.4,2.4-0.2,4.7,0,7c-1-0.3-2-1.6-3,0l-0.8,0c-1.9-1.2-2.9-2.9-2.9-5.2c-0.3-8.8,0.8-17.7-3.9-25.8
	c-1-1.7-2.4-4.4,1.9-3.9c1.4,1.9,3,3.8,3.5,6.4c1-3.3,2.6-6.1,0.8-9.7C20.5,86.2,23,76.1,26.1,74c-2.1,14.3-1.6,28.7,0.4,43
	C26.7,118.6,26.8,120.2,27,121.9z"/>
<path class="st21" d="M143.2,125.9c1.1-8.3,0.2-16.8,2.7-24.9c4.4,1.3,3.2,4.9,3.4,7.9c-0.1,0.7,1,0.1,0.3,0.2c0,0,0,0,0-0.2
	c-0.2-2.7-0.5-5.4-1.7-8c-1.6-3.5-0.1-5.7,4-7.3c2.2,1.2,2.9,3.3,2.9,5.4c0.1,9-2,17.4-7.2,24.8C146.6,125.3,145.4,127,143.2,125.9z
	"/>
<path class="st22" d="M143.2,125.9c5.8-2.8,6.8-8.7,8.5-13.8c1.9-5.8,3.3-12.1,0.2-18.2c-1-1.1-4.2,0.4-3.2-2.9
	c-0.1-3,1.7-3.2,4-2.9c5.6,6.5,4,14.1,2.7,21.4c-1.4,7.8-4.9,14.7-10.7,20.4C142.4,130.4,142.4,130.4,143.2,125.9z"/>
<path class="st23" d="M103.9,200c-3.4-0.7-6.4,2.6-9.9,0.8c6.1-4.4,13.2-7.3,19-12.6c-0.7,1.6-1.3,3.1-2,4.7l-5.8,8.1
	C104.5,201,104.3,200.4,103.9,200z"/>
<path class="st24" d="M148.7,91c0.3,0.8,0,2.1,1.7,1.4c1.5-0.6,1.7,0.3,1.5,1.5c-3.5,1.8-4.7,4.3-2.8,8.1c1.3,2.6,1,5.4,0.6,8.9
	c-1.4-3.8,0.3-7.9-3.7-9.9C146.8,97.7,147.8,94.3,148.7,91z"/>
<path class="st25" d="M62.1,195.7c-1.7-0.1-2.2,1.6-3.4,2.2l-5.5-7.5c-1.6-3.5,1.5-1.3,1.7-1.2C56.9,191.8,60.3,192.9,62.1,195.7z"
	/>
<path class="st26" d="M18.3,94c-0.1,0.9-3-0.3-1.3,2.3c5.5,8.5,5.2,18.1,4.3,27.7c-2,0.7-3.3-0.6-4.1-2c-5-8.5-8.4-17.3-5.4-27.4
	c0.9-3.2,2.4-4.1,5.4-2.8L18.3,94z"/>
<path class="st27" d="M17.2,91.8c-4.1-0.7-3.8,2.8-4.5,5c-2.6,8.1,2,22.2,8.6,27.2c-0.5,2.1,3,2.6,1.9,4.9c-1.6,3-2.7,0.1-3.4-0.6
	c-5.4-5.2-8.2-11.9-9.6-19.1c-1.1-5.5-1.9-11-0.1-16.6c0.8-2.6,2.1-4.4,5-4.8C17.2,88.4,17.2,90.1,17.2,91.8z"/>
<path class="st28" d="M117.2,15.1c-6.7-2-13.1-4.9-20-6.3C95.8,8.4,94.4,8,92.9,8c-10.3-0.1-20.6,0.1-30.4,3.3
	c-4.2,1.4-8.9,2-12.7,5c-1.3,1-3.5,2.9-5.7,0.8C65.3,3.5,87.7,2.3,111,10.7C113.4,11.6,116.1,12.3,117.2,15.1z"/>
<path class="st29" d="M103.9,200l1.2,1c-5.2,8.6-12.1,15.7-19.6,22.1c-1,0.9-2.1,2.4-3.8,0.8c-7.9-7.5-16-14.7-21.6-24.2
	c3,0.3,3.9,2.8,5.6,4.8c3.6,4.4,7.8,8.3,11.5,12.7c3.3,3.9,10.2,3.4,12.9-0.6C94.3,210.6,99.8,205.9,103.9,200z"/>
<path class="st30" d="M94.5,99.7c-0.2-1.6,0.6-2.9,1.3-4.2c1-1.7,2-3.3,0.3-5.1c0.6-1.3,1.8-2.2,3.1-2.2c7.4-0.1,14.8-0.2,22,1.6
	c3.7,1,6.3,5.3,5.5,8.4c-0.9,3.6-5.8,6.3-9.6,5.6c-3.7-0.6-7.5-0.7-11.2,0.5C100.3,106.2,97.8,105,94.5,99.7z"/>
<path class="st31" d="M39.2,81.3c1.7-5.4,4.7-9.1,10.9-9.6c5.6-0.4,10.9-0.2,16.1,2c1.9,0.8,3.9,2.2,3.4,4.3c-0.8,2.9-3.4,1.3-5,0.7
	c-3.8-1.3-7.7-2.1-11.7-2.5C47.7,75.8,43.2,77.6,39.2,81.3z"/>
<path class="st32" d="M94.5,99.7c3.5,3.6,7.4,4.9,12.5,3.7c3.1-0.8,6.6-0.3,9.9-0.1c3.9,0.2,8.7-2.7,9.2-5.8
	c0.4-3.1-3.7-7.3-7.8-7.6c-7.4-0.5-14.8-2-22.1,0.5c0.7-2.7,2.2-4,5.1-2.9c1.9,0.7,3.8,0.2,5.8-0.1c6.3-1,12.2,0.7,17.6,3.9
	c3,1.8,4.8,4.7,3.9,8.4c-1.1,4.4-6.1,5.3-8.6,4.8c-6.7-1.3-12.7,0.7-19,1.5C97.3,106.4,94.1,103.2,94.5,99.7z"/>
<path class="st33" d="M59.8,103.1c-3.8,0.1-7.6,0.1-11.4,0.2c-3.8,0.1-8.4-2.9-8.7-5.8c-0.4-3.1,3.7-7.2,7.8-7.5
	c5.4-0.4,10.9-0.5,16.4-0.6c3.7-0.1,3.6,0,4.6,3.7c0.7,2.4,3.6,4.1,1.9,7.1c-0.4,0.2-0.9,0.2-1.4,0.1c-2.3-2-2.6-6-6.4-6.5
	c-1.8-0.5-3.7-0.5-5.6-0.5c-1.2,0-2.4,0-3.7,0c-1.6,0-3.3-0.1-4.9,0.5c-2,0.7-4.4,1.4-3.9,4.2c0.5,2.6,3,2.7,5.2,2.7
	c1.3,0,2.6-0.1,3.9-0.1c2.1,0,4.1-0.2,6.2,0.3c0.5,0.2,1,0.5,1.4,0.9C61.2,102.8,61,103.4,59.8,103.1z"/>
<path class="st34" d="M121.9,78c-7.1-3.3-13.9-1.3-20.8,0.7c-1.5,0.4-3.8,2.3-4.8-0.2c-1-2.4,1.1-3.8,3.1-4.8
	c6.9-3.5,18.8-2.9,23.5,1.3C123.5,76.3,124.3,77.7,121.9,78z"/>
<path class="st35" d="M60.1,62.1c15.3,1.2,30.5,1.6,45.8,0C90.6,66,75.4,66,60.1,62.1z"/>
<path class="st36" d="M88,133.9c-3.4,2.8-6.7,3-10.1,0c-2.7-2.1-5.9,0.4-8.7-1l-1.4-0.2c-1.3-2.8-1.3-5.5,0.6-8.3c1,1.4,0,2.4,0,3.5
	c0.2,2.4,0.4,4.9,4,3.1c1.5-0.7,3.3-1.3,4.6,0c3.5,3.4,7,2.9,10.7,0.7c0.6,0.4,0.8,1.2,0.4,1.8C88.2,133.6,88.1,133.8,88,133.9
	L88,133.9z"/>
<path class="st37" d="M100.3,57.3c-8,3.8-27.1,3.8-34.7,0.3C77.2,59.2,88.7,60.1,100.3,57.3z"/>
<path class="st38" d="M130,138.9c-1.4,2.5-1.8,5.6-4.1,8c-1.5-3.1-2.9-6-4.3-8.9c1.9,0.4,3.7,3.1,5.7-0.3
	C128.3,136,128.4,139.8,130,138.9z"/>
<path class="st39" d="M42,140.9c-0.4,1.4-0.8,2.8-1.4,4.8c-1.5-3.4-5.7-3.3-6.7-6.7C37,137.6,39.3,140.1,42,140.9z"/>
<path class="st40" d="M87.9,132.8v-1c1-1.4,2.3-1.9,3.8-1.1c3.3,1.9,5.3,1.1,6-2.9c1.9,2,0.1,3.4,0.3,4.9c-1.1,1.6-2.7,1.2-4.2,1
	C92,132.2,89.8,133.5,87.9,132.8z"/>
<path class="st39" d="M32.9,135.2c-4.2-3.1-4-7.9-4.9-12.2C30.9,126.5,32.4,130.7,32.9,135.2z"/>
<path class="st41" d="M94.7,117.1c-3.4-3.8-4-8.3-3.1-13.2C92.7,108.2,93.7,112.7,94.7,117.1z"/>
<path class="st42" d="M70.1,103.5c-1.4,3.3-2.9,6.6-7.4,5.8C65.5,107.7,67.3,105,70.1,103.5z"/>
<path class="st43" d="M68.5,99.8l1.9,0.3c-2.8,3.5-6.2,5.1-10.5,2.9l1.2-1C63.1,100.2,65.8,100.1,68.5,99.8z"/>
<path class="st44" d="M121.9,78c1.2-0.7,1-1.9,1.1-3c2.1,1.6,3.1,4,3.5,6.7L121.9,78z"/>
<path class="st45" d="M110.9,142.5c4.1,0.4,2.7,3.7,2.6,5.6c-0.7,10-5,18.3-12.2,25.3c-1.5,1.5-3.4,2.6-5.5,3.2
	c-1.9,0.5-4.5,1.2-5.7-0.5c-2.9-3.9-6.5-2.8-10.1-2.3c-0.9,0.7-1.9,1.1-3,1.1c-4,3.6-8.1,2.4-11.7-0.4c-6.4-5-10.8-11.4-12.4-19.6
	c-1-2.6-0.2-5.2-0.5-7.9c-0.1-1.4,0-2.8,1.7-3.2c1.5-0.3,2.7,0.7,3.2,1.9c1.5,3.5,3.2,6.9,5.3,10.1c2.2,3.4,3.6,7.7,8.3,8.7
	c0.5,0.1,1,0.2,1.5,0.3c4.4,1.6,8.7,2.9,13.6,2.2c6.8-1,11.7-4.1,14.9-10.3c1.9-3.7,3.7-7.4,5.8-11
	C107.6,144.1,108.2,141.8,110.9,142.5z"/>
<path class="st46" d="M110.9,142.5c-3.2,1.5-3.4,5.1-5,7.7c-1.6,2.5-2.8,5.2-4.3,7.8c-6,10.4-19,13.8-29.6,7.8
	c-0.6-0.7-0.5-1.4,0-2.1c4.4-0.5,8.6,1.4,13.1,1c3.5-0.4,6.8-0.9,9.6-3.3c2.7-4.5,6.2-8.5,7.6-13.7c0.7-2.7-1.3-1.7-2.3-1.5
	c-5.9,0.9-11.9,1.1-17.9,1.1c-5.3,0-10.6-0.4-15.9-1.1c-1.5-0.2-3.5-1-3.6,1.8c-0.3,1.3-1.1,2.2-2.5,2.3c-2.2-3-4.7-5.8-6.2-9.2
	c0.5-1.4,1.5-2,3-2.1c5.3,1.7,10.9,2.8,16.5,3.2c6.3,1.1,12.8,1.1,19.2,0c5.2,0.1,10.1-2.2,15.4-2.2
	C109.7,139.9,110.7,140.8,110.9,142.5z"/>
<path class="st47" d="M54,140.9c3.1,2.2,4.4,5.8,6.3,8.8c1.8,0.8,2.7,2.4,3.5,4c2,4.3,5.2,7.8,7.3,12c-6.1-0.4-7.1-6.2-9.7-9.9
	c-1.9-2.7-4-5.6-4.6-9.2c-0.2-1.1-1.1-2.3-2.4-2.2c-1.4,0.2-1.4,1.6-1.4,2.8c0,2.5,0,5,0,7.5C51.9,150.1,49.9,145.3,54,140.9z"/>
<path class="st48" d="M93.1,142.9c-6.7,1.6-13.5,1.5-20.2,0c0.2-0.7,0.8-1.2,1.2-1.8c5.9,0.8,11.9,0.4,17.8,0
	C92.3,141.7,92.8,142.2,93.1,142.9z"/>
<path class="st49" d="M74.1,141.1c0.8,1.4,0.1,1.8-1.2,1.8c-5.5-0.5-11.3,0-15.9-4.1C62.8,138.5,68.3,140.6,74.1,141.1z"/>
<path class="st50" d="M93.1,142.9c-1.2,0-2-0.4-1.2-1.8c3.8-0.7,7.6-1.5,11.5-2c1.5-0.2,3.5-1.6,4.7,0.8
	C103.3,142.3,98.2,142.9,93.1,142.9z"/>
<path class="st51" d="M77,174.9c0.4-2,1.8-1.2,3-1.1c-1.8,4.5-0.6,9.3-1.4,14.9C77.1,183.6,79.2,179,77,174.9z"/>
<path class="st52" d="M69.2,132.9c2.9,0.7,6.2-2.8,8.7,1C75,133.6,72,134.6,69.2,132.9z"/>
<path class="st53" d="M87.9,132.8c2.1-0.8,4.3-1.8,5.9,1l-5.8,0.1C88,133.5,87.9,133.1,87.9,132.8z"/>
<path class="st54" d="M108,94.9c-1.8,0.2-1.6,1.1-0.9,2.3c0.8,1.5,2.2,1.8,3.7,1.7c1.6-0.1,2.4-1.1,2.6-2.4c0.2-1.9-0.6-4.2,2.8-3.4
	c2.3,3.7,1.9,5.5-2.1,8.7l-7.4-0.1c-4.8-1.3-3.5-5.8-4.7-9c1.6-1.3,3.5-0.7,5.2-0.6C107.8,92.9,108.6,93.7,108,94.9z"/>
<path class="st55" d="M101.9,92.7c1.3,0.1,2.2,0.4,1.9,2.1c-0.6,2.9,0.8,5.1,2.9,6.9c-0.8,0-1.7,0.1-2.5,0.2
	c-2.8,0.5-6.1,0.2-6.8-2.6C96.6,96.5,98.8,93.9,101.9,92.7z"/>
<path class="st56" d="M114.1,101.8c1.4-2.7,3.8-5.2,2.1-8.7c3.6-0.8,6.6,0.9,6.6,4.2c0.1,3.6-3.1,5.1-6.8,4.6
	C115.4,101.8,114.7,101.8,114.1,101.8z"/>
<path class="st57" d="M108,94.9c-0.6-0.8-1.6-1.6-0.9-2.8c1.2,0.3,3.2-1.1,3.6,1C111,94.6,109.5,95.1,108,94.9z"/>
<path class="st58" d="M56.9,92.1c2.1,0.1,4.3-1,6.1,0.7c2.5,4.2,0.7,6.9-2.9,9.1l-7.3-0.1c-4.2-1.6-3.8-5.7-4.8-9
	c1.5-1.5,3.4-0.7,5.2-0.7c0.8,0.8,1.4,1.7,1.4,2.9c0.1,1.4,0.5,2.8,2.3,2c1.9-0.9,0.7-2.4,0-3.6C56.7,93,56.7,92.5,56.9,92.1z"/>
<path class="st59" d="M48,92.8c1.2,0.1,2.4,0.1,2,1.9c-0.5,2.9,1,5.1,2.8,7.1c-1.8,0-3.6,0.1-5.4,0.1c-2.8,0-4.6-2.1-4.8-4.1
	C42.4,94.8,44.9,93.1,48,92.8z"/>
<path class="st60" d="M60.1,101.9c2.4-2.6,3.2-5.7,2.9-9.1c4.1,0.6,5.3,3.4,5.5,7c-2,2.3-4.7,2.4-7.5,2.3
	C60.7,101.9,60.4,101.9,60.1,101.9z"/>
<path class="st61" d="M54.1,94.9c-0.4-0.9-1.4-1.6-1-2.8l3.7,0c0,0.3,0.1,0.6,0.3,0.9C57,95,56.2,95.9,54.1,94.9z"/>
<path class="st62" d="M71.1,165.8c-5.4-4.1-7.6-10.4-10.8-16l1.7-2.1c1.3-0.4,2.3,0.1,3.2,1c1.2,4.3,3.4,8.2,5.4,12.1
	c0.5,0.9,1.6,1.5,1.4,2.8c0,0.7,0,1.4-0.1,2.1C71.7,165.8,71.4,165.8,71.1,165.8z"/>
<path class="st63" d="M70,161.8c-1.8-3.4-3.7-6.7-5.5-10.1c-0.6-1.1,0.1-1.8,0.5-2.7c1.7-1.1,3.6-0.7,5.3-0.5
	c9.1,1.5,18.2,1.1,27.2-0.8c1.8-0.4,3.6-0.8,5.3,0.2c0.6,3.2-1.7,5.2-3.1,7.5l-3.8,6.2C87.4,164,78.7,164,70,161.8z"/>
<path class="st64" d="M102.9,148c-12.6,3.1-25.2,3.6-37.9,1l-3-1.3l-2.8-4.3c16.1,3.3,31.2,3.7,46.5,0
	C105.9,146.1,104.2,146.9,102.9,148z"/>
<path class="st65" d="M70,161.8c3.9-1.4,7.6,0.9,11.5,0.5c4.8-0.5,9.7-0.4,14.5-0.5c-7.5,6.3-15.7,5.1-24,1.9L70,161.8z"/>
<path class="st66" d="M54.1,94.9c1.6,0.4,2.6-0.3,3-1.9c2.2,0.5,3.1,1.9,2.2,3.9c-0.8,1.8-2.6,2.7-4.6,1.7
	C53.1,97.8,52.1,96.5,54.1,94.9z"/>
</svg>
