<svg version="1.1" id="Capa_1" xmlns="http://www.w3.org/2000/svg" xmlns:xlink="http://www.w3.org/1999/xlink" x="0px" y="0px"
	 viewBox="0 0 166 253" style="enable-background:new 0 0 166 253;" xml:space="preserve"><defs><style>.cls-1{fill:#202020;}.cls-2{fill:#f9f9f9;}.cls-3{fill:#0b0807;}.cls-4{fill:#0b0808;}.cls-5{fill:#f5b78a;}.cls-6{fill:#f9b684;}.cls-7{fill:#f2b47f;}.cls-8{fill:#080606;}.cls-9{fill:#0d0a0b;}.cls-10{fill:#222;}.cls-11{fill:#1b0a06;}.cls-12{fill:#c9c9c9;}.cls-13{fill:#c8c8c8;}.cls-14{fill:#f9b788;}.cls-15{fill:#272b2c;}.cls-16{fill:#191a19;}.cls-17{fill:#f7b688;}.cls-18{fill:#150403;}.cls-19{fill:#cf8161;}.cls-20{fill:#e8b396;}.cls-21{fill:#6d2f1e;}.cls-22{fill:#ca7c60;}.cls-23{fill:#ebb497;}.cls-24{fill:#636566;}.cls-25{fill:#2a160f;}.cls-26{fill:#2a180e;}.cls-27{fill:#1e0a07;}.cls-28{fill:#251b0f;}.cls-29{fill:#d78c63;}.cls-30{fill:#7a431f;}.cls-31{fill:#d99268;}.cls-32{fill:#e4b48e;}.cls-33{fill:#deb18f;}.cls-34{fill:#7f4628;}.cls-35{fill:#803d18;}.cls-36{fill:#e3986f;}.cls-37{fill:#42281f;}.cls-38{fill:#48210b;}.cls-39{fill:#1b0805;}.cls-40{fill:#956e56;}.cls-41{fill:#a26c56;}.cls-42{fill:#504032;}.cls-43{fill:#f7f0e9;}.cls-44{fill:#f8f2ef;}.cls-45{fill:#eae6e3;}.cls-46{fill:#533e34;}.cls-47{fill:#f4f0eb;}.cls-48{fill:#f4f0e8;}.cls-49{fill:#eee6e8;}.cls-50{fill:#2b0805;}.cls-51{fill:#580505;}.cls-52{fill:#e7e0de;}.cls-53{fill:#eadee1;}.cls-54{fill:#190906;}</style></defs><path class="cls-1" d="M8.09,252.68c-8,0-8,0-8-8Q.1,124.39,0,4.08C0,.67.67,0,4.09,0Q83,.21,161.86,0c3.42,0,4.1.67,4.09,4.09q-.18,121.3.05,242.61c0,5.12-1,7.1-6.14,6a9.44,9.44,0,0,0-2,0c-2.24-2.78-1.5-6.05-.2-8.49,2.79-5.24,2.1-10.67,1.67-16-.77-9.55-1.52-19.14-3.6-28.56-1.71-7.73-6.15-12.58-13.89-14.47-5.79-1.4-11.58-2.82-17.33-4.38-1.7-.46-4.18-.2-4.58-2.9a47.55,47.55,0,0,0,12.28-19.44c2.83-6.89,6.15-13.6,7.58-21,.48-2.5,2.36-3.83,4.27-5.24,10.54-7.66,17-26.25,13.55-38.79-.66-2.41-1.43-4.79-3.7-6.24a12.8,12.8,0,0,1-1.38-.71c-4.1-1.06-4.22-4.13-3.74-7.46,2-13.37-.1-26.3-4.54-38.91a34,34,0,0,0-6.9-11.38C124.63,12.44,107.88,4.17,87.25,3.39,70.1,2.73,54.38,6.71,40.5,17.07c-15.85,11.08-23.28,26.66-24,45.63a119.87,119.87,0,0,0,.32,18.85c.18,1.52.22,3-1.25,4-5.18,1.1-7.47,4.74-7.95,9.61-1.05,10.93,1,21.19,7.22,30.44,1,1.53,2,3.28,3.6,4.09,6,3.08,7.73,8.63,9.36,14.5a91.79,91.79,0,0,0,6.79,17.12A38.1,38.1,0,0,0,37,166.75c1.64,2.88,3.66,5.5,5.45,8.28,2,3.11,1.44,4.82-2.14,5.92a126.54,126.54,0,0,1-13.47,3.29c-4.94.94-9.62,2.48-12.83,6.75-1.11,1.67-2.51,3.15-3.31,5-2.72,9.13-3,18.62-4.18,28-.38,3.11-.19,6.26-.85,9.39-.61,2.94-.58,6,2,8.31C8.57,245.31,9.45,249,8.09,252.68Z" transform="translate(-0.01)"/><path class="cls-2" d="M138.89,252.68H26.06c-2.69-4.47-1.56-9.43-1.28-14.09a150,150,0,0,1,4.09-27.77,71.56,71.56,0,0,0-4.41,24.83c0,6.74-1.92,8.19-8.6,6.91-1.3-.24-2.61-.48-3.9-.75-3.62-.78-5.4-2.88-5.26-6.67.12-3.3-.3-6.66,1.45-9.7,4.56-.12,3.84-2.83,3.12-5.91a41.53,41.53,0,0,1-1.56-10.29c.21-6.26.76-12.42,4.45-17.8a17.94,17.94,0,0,1,8.46-4.88c5.84-1.77,11.83-3,17.67-4.75,4.19-1.28,7-.32,8.7,3.84a46.77,46.77,0,0,0,2.5,4.25C59,203.61,69.7,214.66,80.82,225.36c1.65,1.6,2.73,1.49,4.55,0,10.86-8.75,19.34-19.45,26.32-31.43a45.31,45.31,0,0,1,5.64-9.9c1.06-1.51,2.13-3,4.29-2.92,1,.1,1.95.35,2.93.53,4.38.88,8.7,2.06,13,3.23,1.87.64,3.77,1.25,5.65,1.89a19.18,19.18,0,0,1,9.69,7.31,35.06,35.06,0,0,1,3,17.95,60.7,60.7,0,0,0-1.68,7.23c-.36,3-1,6,3.47,6.39.93,2.55.59,5.26.93,7.89.81,6.3,0,7.36-6.46,8.62l-1.46.28c-8.57,1.69-10.42.4-10.22-8.08.22-9.4-2.34-18.15-5.07-26.39,3.45,13.3,5.72,27.24,4.79,41.56A5.18,5.18,0,0,1,138.89,252.68Z" transform="translate(-0.01)"/><path class="cls-3" d="M123.9,182.6c-.77.14-1.52.21-2.06-.53-.74-1.36-2.82-1-3.34-2.69-.32-1-.3-2.06.61-2.65a1.07,1.07,0,0,1,1.78.8c-1,.91-.64,1.08.5,1.34,7.09,1.64,14.18,3.29,21.23,5.11,7.54,1.94,12.54,6.71,14.21,14.35,2.83,13,3.4,26.27,4.54,39.48.24,2.75-2.43,3.37-2.63,5.49-.3,3.13-.58,6.26-.87,9.4h-4a2.31,2.31,0,0,1-.52-1.28c-.1-1.86,1.25-4.47-.76-5.38-2.47-1.11-5.56-.54-8,.53s.06,4.36-1.67,6.14h-4c.71-15.91-1.44-31.53-4.73-47.08,5.41,6.31,6.66,14,7.58,21.81a51.48,51.48,0,0,1,.42,9.91c-.32,4,1.36,4.71,4.86,4.38,10.22-1,10.58-1.28,10-11.48-.1-1.82-.24-3.63-.36-5.45-3.27-3.65-1.75-8-1.64-12.08-.18-6.31-.91-12.53-3.33-18.44-1.33-4.37-4.59-6.19-8.84-6.71a10.88,10.88,0,0,1-5.15-1.71C133.37,183.75,128.84,182.31,123.9,182.6Z" transform="translate(-0.01)"/><path class="cls-4" d="M9.23,224.79c-1,3.73-.9,7.56-1.23,11.36-.23,2.79,1.08,3.81,3.36,4.39l.48.14c10.77,2.31,10.7,2.3,11.29-8.82.37-7,1.38-13.84,4.05-20.34.84-2.05,1.41-4.41,4.37-6.09a175.21,175.21,0,0,0-5.49,47.28h-3c-.34-.37-.83-.78-.81-1.22.15-4.63-2.63-5.49-6.57-5.93-2.9-.32-3.57.41-3.38,3a4.93,4.93,0,0,1-1.22,4.16h-3L6.92,242.15c-2.14-2.09-2-4.79-1.79-7.4C6.22,221.33,7.2,207.88,10,194.67c-.25-2.11,2.66-2.12,2.69-4a2.42,2.42,0,0,1,1.46-.35c.77.29,1.36.69,1,1.66C12,197.39,11,203.36,10.94,209.55c-1.21,3.22.64,6.47-.11,9.72C10.39,221.13,10.71,223.22,9.23,224.79Z" transform="translate(-0.01)"/><path class="cls-5" d="M142.89,252.68c-.2-1.46-.36-2.92-.62-4.37-.49-2.76.46-4.07,3.4-3.67a13.31,13.31,0,0,0,3,0c7.31-.7,7.47-.48,5.38,7.27-4.4-5.11-5.51-5-9.12.8Z" transform="translate(-0.01)"/><path class="cls-5" d="M11.08,252.68c-.09-2.87-1.33-6.61,0-8.42,1.53-2.06,5.11.93,7.9.42,3.35-.62,4.41.92,3.95,4.1a21.25,21.25,0,0,0,.12,3.9h-2c-.37-.55,0,.2-.31-.36-3.78-5.83-5.26-5.77-8.66.36Z" transform="translate(-0.01)"/><path class="cls-6" d="M12.08,252.68c.11-2.7-.8-6,3.72-6,4.21,0,5.52,2.24,5.27,6Z" transform="translate(-0.01)"/><path class="cls-7" d="M144.89,252.68c.13-2.61-.37-5.84,3.53-5.89,3.14,0,6,.88,5.59,5.09a.57.57,0,0,1-.1.78l0,0Z" transform="translate(-0.01)"/><path class="cls-8" d="M15.12,191.92l-1-1.12c1.64-4.09,5.5-5.15,9.1-6.24,5.68-1.74,11.69-2.15,17.33-4.13,4-1.42,4.41-2.61,1.73-5.92-2.08-2.58-4.29-5-6.3-7.67a8.74,8.74,0,0,1-2.15-4.58c-4-9.47-7-19.31-10.33-29a6.62,6.62,0,0,1-.28-4.36c1-1.91,2.39-1.78,3.9-.58a8.88,8.88,0,0,1,1.7,5.13,43.34,43.34,0,0,0,4.69,16.85c0,1,1.07.41.41.49-.25,0-.3-.08-.34-.29-.21-1-.45-2.07.74-2.55.89-.37,1.54.36,2.06,1a8.72,8.72,0,0,1,1.48,3.14C41,162.44,46,171.6,54.77,178.4c.18-3.34-1.36-6.46-1.69-9.77-.14-1.43-.46-3.43,1.44-3.71s2.12,1.67,2.41,3.13a76.11,76.11,0,0,0,3.32,12.51c.45,1.22.53,2.48,2.67,1.57s2.78,1.56,3.19,2.88c1.4,4.47,4.9,6.86,8.28,9.61,6.76,5.51,14,2.75,19.13-3.22,1-1.12,1.54-2.57,2.67-3.59,2-1.77,3.19-1.2,3.92,1.79,2.27-3.26,4.43-6.07,5.89-9.41.69-1.54.85-4.1,3.35-3.55,2.3.5,1.17,3.06,2,5,5.91-9.09,13.09-17.16,14.77-28.19.21-1.41.58-3.25,2.36-3.42,1-.1,1.42,1.15,1.28,2,7-11,8.64-23.46,8.73-36.36,1.09-13.12,2.19-26.28-1.16-39.19-1.59-6.19-1.91-12.46-2.8-18.7a22.32,22.32,0,0,1,.09-6c.23-1.11.47-2.48,1.68-2.64s1.74,1.19,2.24,2.16a37.84,37.84,0,0,1,2.22,4.79c1.52,7.94,2.16,16.06,4.9,23.28-.4-8.12.36-16.76-1.28-25.33-1.07-5.56-2.24-11-5.27-15.9A9.54,9.54,0,0,1,137.33,33a1.84,1.84,0,0,1,.81-1.28c4.92,1.36,5.84,5.9,7.2,9.72,4.48,12.53,5.35,25.51,4,38.68-.56,5.54-.52,5.55,4.64,5.72l0,0a1.81,1.81,0,0,1-.41,2.56c-1.52.82-3.49,1.1-4,3.23-1,3.35-1.69,6.79-2.68,10.16-1.78,7.58-1,15.44-2.58,23,.43,1.65-2.06,4.07,1.32,5,.44.64.4,1.46-.2,1.74-4.83,2.3-5.55,7-6.6,11.41-1.34,5.62-4.51,10.57-5.85,16.18a49.38,49.38,0,0,1-10,17.65,2.09,2.09,0,0,1-2.11.78c-2.27-.94-2.17.44-1.43,1.71.61,1,2.18,1.36,2.39,2.82-1.11.08-2.19-.13-2.91,1.24-2,3.86-4.19,7.62-6.3,11.42-1.53.14-2.09-.78-2.3-2.07,0-.14,0-.32,0-.47,0-.38.2-1.25-.55-.58-4.87,4.33-10.74,7.08-16.2,10.5-7.79,3-15.52,3.32-23.07-.7-2.79-1.49-5.86-2.39-8.5-4.15a62.8,62.8,0,0,0-6.79-6c-.67-.57-1.31-.91-1.89.13-1.15,1.32-1.82-.11-2.68-.46-2.51-2.55-2.55-7.7-6-8.41-3.21-.66-7,1.21-10.48,2.24C27.69,186.64,20.65,187.27,15.12,191.92Z" transform="translate(-0.01)"/><path class="cls-9" d="M139.85,56c-1.57-1.55-1.92-3.83-3.1-5.51-1-1.45-.59.62-1,.86-2.5-.57-3-2.93-4.1-4.68a14.91,14.91,0,0,0-12.75-7.35c-6.82-.32-13.16,1.57-19.47,3.55-12.72,4-25.18,3.15-37.55-1.41-8.51-3.14-16.81-3.63-24.6,2.13C31.36,48,29.49,54,29.42,61c-.05,4.59.6,9.35-2.45,13.41-5.64,4.5-3.45,10.57-2.77,16a31.1,31.1,0,0,1-.12,7.83,2.78,2.78,0,0,1-2,2.6c-1.6.36-1.89-1.06-2.28-2.08-.54-1.42-1.51-2.58-2.11-4-.43-.83-.81-1.69-1.16-2.56a13.41,13.41,0,0,0-2.06-4.06,2.16,2.16,0,0,1,.64-3.42c.79-8-.58-16.09.14-24.17C16.76,43.52,23,28.92,36.69,18A26.33,26.33,0,0,1,40,16a3.19,3.19,0,0,1,.89,3,20.21,20.21,0,0,1-6.69,8.52C26.86,33.5,23.89,42,22,50.42,20.23,58.53,18.12,67,20.23,75.1A133.56,133.56,0,0,0,23.65,52c.74-13.78,19.27-25.75,31.56-21,5.29,2.07,10.6,4.35,16.09,6.07,7.82,2.47,15.33,2.78,22.76-.63a59.53,59.53,0,0,1,28.85-5.73C134.27,31.42,144.24,46.26,139.85,56Z" transform="translate(-0.01)"/><path class="cls-8" d="M40,19V16C53.75,5.36,69.47,1.92,86.59,2.22c18.82.34,34.44,7.29,47.53,20.46A48.76,48.76,0,0,1,138,27.75c.28,1.43,2.3,2.93-.13,4.29h0c-2.54.52-3.2-1.72-4.5-3-5.24-5.36-10.07-11.25-17.41-14C106,8.28,94.73,7.08,83.17,7c-13.8-.1-26.57,3.33-38.11,11C43.44,18.66,42.06,20.48,40,19Z" transform="translate(-0.01)"/><path class="cls-8" d="M15.08,84.87a2.54,2.54,0,0,0,0,2.94C9.8,93.13,9.72,99.58,11,106.38c1.18,6.44,2.88,12.67,7.06,17.9,1.32,1.66,2.55,3.54,4.89,4a1.8,1.8,0,0,1,1.16.58c1.47,9.65,4.95,18.7,8.42,27.74.7,1.84,1.91,3.51,1.4,5.62a76.68,76.68,0,0,1-8.84-23.06c-.59-2.71-1.57-4.66-4.27-6.08-5.92-3.12-9-8.78-11.24-14.73-3.42-9-5.32-18.19-2.12-27.72C8.64,87,10.92,84.67,15.08,84.87Z" transform="translate(-0.01)"/><path class="cls-8" d="M133,159.11c1.35-8.31,5.59-15.74,7.3-23.94.51-2.44,4.61-2.2,4.36-5.39-.25-1.7,1-2.73,1.8-3.93,8-11.27,11.54-23.3,6.17-36.82a1.72,1.72,0,0,1,0-1,2.69,2.69,0,0,0,1.3-2.23c4.49,1.77,5.28,6,5.45,9.81.7,15.36-2.3,29.39-16.29,38.62-1.53,1-2,2.42-2.4,4.09A83,83,0,0,1,133,159.11Z" transform="translate(-0.01)"/><path class="cls-8" d="M137.9,32.05c1-1.4-.17-2.88.13-4.29,7.28,8.05,10.24,17.89,11.61,28.34,1.07,8.23,1.82,16.53.12,24.71-.85,4.11,2.52,3.65,4.25,5-.94.31-1.87.68-2.83.91-2.75.63-3.48-.07-3.08-3.17,1.83-14.14,1.2-28.18-3.27-41.84C143.57,37.87,141.72,34.18,137.9,32.05Z" transform="translate(-0.01)"/><path class="cls-10" d="M36,166.83c2.65,2.49,5.46,4.83,7.92,7.5,2.82,3,2.12,4.88-1.89,6.46-5.58,2.21-11.59,2.5-17.31,4.06-4,1.1-7.74,2.75-10.59,6l-1.45-.19c2.44-3.87,6.17-5.72,10.47-6.75,6.71-1.59,13.39-3.28,20.33-5C41.35,174.22,37.08,171.52,36,166.83Z" transform="translate(-0.01)"/><path class="cls-10" d="M10,194.65q-1.74,15.66-3.51,31.28c-.62,5.43-1,10.83.39,16.21-1.74-.59-2.74-1.63-2.64-3.63.7-14.17,1.92-28.28,4.81-42.2A7,7,0,0,1,10,194.65Z" transform="translate(-0.01)"/><path class="cls-11" d="M111,192.9l1.67,1.82a115.42,115.42,0,0,1-26.78,31.72c-1.67,1.36-2.82,2.38-5,.45-11.77-10.59-22.41-22.08-30.21-36,.86,0,1.89.85,2.49-.49,3.61.9,4.15,4.61,6.29,6.87.49.77,1,1.56,1.48,2.31,5.4,8,12.58,14.4,19.27,21.24,2.2,2.23,4.16,2.25,6.37.09,6.47-6.36,13-12.65,17.76-20.54C106.77,198.08,107,193.87,111,192.9Z" transform="translate(-0.01)"/><path class="cls-12" d="M9.23,224.79a63.83,63.83,0,0,1,1.7-15.26c.74,4.53,1.57,9.05,2.15,13.61.18,1.41,2.17,3.31-.2,4.3C10.79,228.31,10.47,225.67,9.23,224.79Z" transform="translate(-0.01)"/><path class="cls-13" d="M155.06,212.71c1.37,3.92.85,8.09,1.64,12.09-1.33.9-1.71,3.78-4,2.52-1.72-.94-.07-2.62,0-4C153,219.71,152.62,215.9,155.06,212.71Z" transform="translate(-0.01)"/><path class="cls-8" d="M123.9,182.6c-.24-.72-.7-1.93.58-1.65,4.56,1,9.1,2.18,13.57,3.54,1.84.55.87,1.14-.32,1.37Z" transform="translate(-0.01)"/><path class="cls-8" d="M142.89,187.57c3.4-2,8.4,1.83,8.85,6.71A21.69,21.69,0,0,0,142.89,187.57Z" transform="translate(-0.01)"/><path class="cls-14" d="M26.1,74C28.39,70.08,28,65.73,28,61.45c.29-17.8,13.47-27.63,30.59-22.39,9.21,2.81,18.23,5.95,28.11,5,5.34-.49,10.36-2.12,15.5-3.39,2.23-.56,4.44-1.28,6.69-1.81,14.54-3.33,20.47-.56,26.79,12.46.12,9.82,2.2,19.33,4,28.95,2.21,11.94,1.17,24.17,0,36.27a72.91,72.91,0,0,1-3.12,16.31c-1,3-2.32,5.88-5.8,6.84-1.68.46-3.26-1.86-5.3.34-1.22,1.32-3.28-.68-4.85-1.54-5.43-4.95-11.78-6.33-18.88-4.81a5.58,5.58,0,0,1-3.4-.2c-1-.17-.39-2.81-2.75-1.39-2.16,1.3-5.11-1.1-7.56.53-3.43,2.52-6.88,3-10.44.23a4.89,4.89,0,0,0-4.17-.92c-5.28.92-5.56.58-5.51-5-1.17,2,1.26,4.31-.28,6.46-1.76,1-3.56.41-5.29,0-8.23-1.82-14.24,2.09-19.7,7.49-3.15,1.31-5.61-1.72-8.63-1.35-2-1-1.45-3.15-2.17-4.74a30.39,30.39,0,0,0-5.18-11.67,8.31,8.31,0,0,1-1-2.27c-1.56-7.52-2.84-15-1.67-22.75.88-5.75-.82-11.48-.28-17.29C24,78.19,24.38,76,26.1,74Z" transform="translate(-0.01)"/><path class="cls-15" d="M117.22,15.08c4.23-.22,6.73,2.82,9.36,5.29,4,3.71,7.56,7.77,11.31,11.68,8.12,13.74,9.62,28.79,9,44.3-.07,2,.26,4-1.46,5.84-3.72-8.42-5-17.22-5.57-26.18.51-9.68-2.74-17.47-11.43-22.47-1-.56-2.14-1.45-3.13-1.35-7.81.83-15.62-1.2-23.51,2.91-7.66,4-16.49,7.15-25.55,4.77-5.11-1.34-10.13-3.88-15-5.54C55.59,32.41,49.42,29.41,42,32.62,33.22,36.44,27,41.36,25.23,50.73c-1.31,7.12-1.59,14.42-3,21.57a19.09,19.09,0,0,1-2.93,7A74.25,74.25,0,0,1,26,35.55C29.27,28.75,36.11,25.17,40,19c1.74.16,2.56-1.67,4.12-1.92,5.48-.88,9.77-4.59,15-6.2a83.08,83.08,0,0,1,40.6-2.53A52.07,52.07,0,0,1,117.22,15.08Z" transform="translate(-0.01)"/><path class="cls-16" d="M42,140.88c4.68-8,11.87-10.12,20.55-8.81,1.77.27,3.56.46,5.34.68a1.48,1.48,0,0,1,1.45-.14c2.78.64,5.66-.64,8.41.46a8.38,8.38,0,0,0,10.46,0,13.13,13.13,0,0,1,5.33-.35c1.49.39,3-.22,4.47,0,2.27-.26,4.55-.5,6.81-.79,6.64-.86,12.28,1,16.73,6.1,2.1,1.41,2.83,3.91,4.5,5.8,1.8-1.32,1.66-4.11,3.93-4.9,2.83.21,3.44-2.12,4.4-4,3-5.75,3.84-12.18,5.38-18.38-.2,13.65-2.25,26.81-10.6,38.69-.16-1.71-.29-3.09-.41-4.47-2.72,13.32-10.38,23.69-19,34.23-1.32-3,1.46-5.48-.88-8.16-2.55,5.83-5.17,11.24-10.2,15.55-.77-1.76,1-3.3-.51-5.3-4.45,6.74-9.62,13.63-18.51,11.35a21.34,21.34,0,0,1-15.86-16c-1.31.8-.23,2.87-2,2.81s-2-1.68-2.38-2.87c-1.76-5.54-3.45-11.1-4.74-16.82-.78,5.33,2,10.27,1.71,15.73-11.6-8.15-17.49-19.84-21.14-33.68-2,2.69.82,4.56-.62,6.29-5.57-7.43-6.88-16.16-7.6-25.06-1.28-2.33-5.51-4.66,0-7l.95,1.05c1.78,4,2.71,8.4,5,12.24.3,1.28.6,2.55.91,3.81A14.59,14.59,0,0,1,38,141.62C39.79,143.17,40.84,142.15,42,140.88Z" transform="translate(-0.01)"/><path class="cls-17" d="M60.16,199.77,58.7,198c.54-1.66,1-3.39,3.43-2.2,7.75,3.61,14.9,9,24.37,7.25A66.08,66.08,0,0,0,94,200.79c3.34-.25,6.37-2.87,9.94-1.28.71,1.32-.22,2.17-.89,3.07A153.57,153.57,0,0,1,89.93,218c-4.13,4.3-9.27,4.26-13.35-.41-4.23-4.86-9.42-8.85-12.9-14.38A14.12,14.12,0,0,0,60.16,199.77Z" transform="translate(-0.01)"/><path class="cls-18" d="M27,121.88c-3.41,2.36-.2,4.68,0,7-1-.29-2-1.6-3,0l-.81,0a5.81,5.81,0,0,1-2.88-5.19c-.26-8.76.79-17.69-3.94-25.8-1-1.68-2.37-4.38,1.88-3.92,1.44,1.92,3,3.76,3.52,6.36,1-3.26,2.59-6.1.84-9.69C20.52,86.23,23,76.08,26.11,74c-2.07,14.34-1.6,28.66.36,43C26.68,118.6,26.83,120.24,27,121.88Z" transform="translate(-0.01)"/><path class="cls-19" d="M143.18,125.93c1.08-8.31.22-16.8,2.75-24.92,4.42,1.28,3.19,4.9,3.39,7.94-.08.7,1,.14.31.16t0-.15a24.45,24.45,0,0,0-1.7-8c-1.56-3.48-.14-5.65,4-7.27a5.87,5.87,0,0,1,2.92,5.43,41.41,41.41,0,0,1-7.19,24.8C146.61,125.35,145.45,127,143.18,125.93Z" transform="translate(-0.01)"/><path class="cls-20" d="M143.18,125.93c5.77-2.76,6.85-8.75,8.51-13.8,1.92-5.79,3.32-12.13.18-18.23-1-1.09-4.21.35-3.19-2.91-.14-3,1.73-3.23,4-2.94,5.55,6.53,4,14.06,2.69,21.37a36.93,36.93,0,0,1-10.7,20.36C142.42,130.41,142.42,130.41,143.18,125.93Z" transform="translate(-0.01)"/><path class="cls-14" d="M103.92,200c-3.37-.67-6.43,2.63-9.9.79,6.13-4.36,13.23-7.32,19-12.61q-1,2.35-2,4.72l-5.83,8.15C104.47,201,104.3,200.38,103.92,200Z" transform="translate(-0.01)"/><path class="cls-21" d="M148.69,91c.28.81,0,2.14,1.7,1.41,1.46-.64,1.67.32,1.48,1.5-3.51,1.78-4.72,4.33-2.82,8.06,1.33,2.62,1,5.4.56,8.94-1.45-3.77.32-7.94-3.68-9.9Z" transform="translate(-0.01)"/><path class="cls-14" d="M62.12,195.75c-1.7-.12-2.18,1.64-3.43,2.2l-5.51-7.53c-1.62-3.52,1.53-1.32,1.65-1.17C56.91,191.82,60.33,192.88,62.12,195.75Z" transform="translate(-0.01)"/><path class="cls-22" d="M18.31,94c-.11.9-3-.31-1.26,2.34,5.47,8.5,5.21,18.09,4.27,27.7-2,.7-3.28-.64-4.09-2-5-8.46-8.38-17.25-5.4-27.38.93-3.16,2.44-4.11,5.41-2.79Z" transform="translate(-0.01)"/><path class="cls-23" d="M17.23,91.83c-4.12-.68-3.77,2.75-4.5,5-2.55,8.06,2,22.2,8.58,27.15-.53,2.09,3,2.55,1.94,4.87-1.6,3-2.73.14-3.45-.55-5.43-5.2-8.15-11.88-9.62-19.07-1.11-5.48-1.89-11-.06-16.61.84-2.55,2.14-4.42,5-4.84C17.16,88.42,17.15,90.15,17.23,91.83Z" transform="translate(-0.01)"/><path class="cls-24" d="M117.22,15.08c-6.69-2-13.12-4.86-20-6.35A21.79,21.79,0,0,0,92.88,8c-10.26-.11-20.59.14-30.37,3.3-4.21,1.37-8.88,2-12.66,5-1.31,1-3.48,2.94-5.7.85C65.32,3.51,87.7,2.29,111,10.7,113.38,11.57,116.06,12.31,117.22,15.08Z" transform="translate(-0.01)"/><path class="cls-14" d="M103.92,200l1.22,1.05c-5.21,8.56-12.09,15.65-19.63,22.13-1,.89-2.08,2.4-3.75.8-7.86-7.49-16-14.7-21.61-24.22,3,.35,3.93,2.77,5.63,4.82,3.62,4.39,7.8,8.32,11.52,12.71,3.34,3.93,10.19,3.43,12.93-.64C94.27,210.64,99.79,205.9,103.92,200Z" transform="translate(-0.01)"/><path class="cls-25" d="M94.48,99.74a6.77,6.77,0,0,1,1.31-4.17c1-1.72,1.95-3.31.34-5.14a3.53,3.53,0,0,1,3.07-2.19c7.38-.09,14.79-.25,22,1.63,3.66,1,6.3,5.27,5.52,8.35-.9,3.56-5.77,6.26-9.61,5.59a22.63,22.63,0,0,0-11.22.51C100.34,106.17,97.76,105,94.48,99.74Z" transform="translate(-0.01)"/><path class="cls-26" d="M39.22,81.3c1.68-5.4,4.67-9.13,10.93-9.56,5.56-.38,10.93-.21,16.12,2,1.94.83,3.94,2.23,3.39,4.27-.8,2.93-3.44,1.28-5,.75A52.82,52.82,0,0,0,53,76.27C47.66,75.76,43.17,77.63,39.22,81.3Z" transform="translate(-0.01)"/><path class="cls-14" d="M94.48,99.74c3.46,3.59,7.37,4.92,12.48,3.66,3.12-.78,6.59-.3,9.9-.13,3.87.2,8.74-2.72,9.16-5.75s-3.7-7.31-7.77-7.57c-7.38-.47-14.8-2-22.11.48.74-2.66,2.19-4,5.11-2.87,1.91.7,3.83.25,5.84-.07,6.33-1,12.23.71,17.62,3.87,3,1.77,4.85,4.74,3.9,8.42-1.14,4.41-6.09,5.29-8.62,4.79-6.67-1.34-12.68.72-19,1.46A6,6,0,0,1,94.48,99.74Z" transform="translate(-0.01)"/><path class="cls-27" d="M59.8,103.08c-3.8.06-7.61.08-11.42.18s-8.4-2.9-8.73-5.78c-.37-3.14,3.68-7.24,7.82-7.51,5.43-.37,10.9-.5,16.36-.62,3.72-.08,3.61,0,4.64,3.7.66,2.36,3.57,4.11,1.88,7.1a2.59,2.59,0,0,1-1.38.11c-2.3-2-2.58-6-6.41-6.52a18.77,18.77,0,0,0-5.64-.48c-1.22,0-2.44,0-3.65,0a14.52,14.52,0,0,0-4.91.49c-2,.73-4.43,1.4-3.85,4.21.54,2.64,3,2.68,5.15,2.74,1.32,0,2.63,0,4-.08a26.47,26.47,0,0,1,6.16.34,3.25,3.25,0,0,1,1.37.87C61.21,102.81,61,103.44,59.8,103.08Z" transform="translate(-0.01)"/><path class="cls-28" d="M121.88,78c-7-3.28-13.89-1.31-20.79.69-1.49.43-3.8,2.26-4.79-.17s1.14-3.81,3.12-4.82c6.94-3.51,18.85-2.87,23.52,1.28C123.53,76.33,124.3,77.73,121.88,78Z" transform="translate(-0.01)"/><path class="cls-29" d="M60.09,62.13c15.27,1.2,30.53,1.55,45.79,0A91.75,91.75,0,0,1,60.09,62.13Z" transform="translate(-0.01)"/><path class="cls-30" d="M88,133.87c-3.35,2.84-6.7,3-10.08,0-2.7-2.13-5.9.39-8.69-1l-1.36-.18a7.83,7.83,0,0,1,.6-8.27c1,1.37,0,2.44,0,3.5.19,2.41.4,4.92,4,3.07,1.46-.74,3.31-1.34,4.65,0,3.46,3.44,7,2.9,10.74.68a1.29,1.29,0,0,1,.07,2.14Z" transform="translate(-0.01)"/><path class="cls-31" d="M100.31,57.32c-8,3.81-27.1,3.81-34.72.32C77.16,59.17,88.73,60.1,100.31,57.32Z" transform="translate(-0.01)"/><path class="cls-32" d="M130,138.92c-1.39,2.53-1.83,5.56-4.09,8L121.54,138c1.91.42,3.69,3.08,5.72-.32C128.28,136,128.42,139.8,130,138.92Z" transform="translate(-0.01)"/><path class="cls-33" d="M42,140.88c-.42,1.41-.83,2.82-1.42,4.82-1.54-3.38-5.74-3.25-6.74-6.71C37,137.6,39.29,140.1,42,140.88Z" transform="translate(-0.01)"/><path class="cls-34" d="M87.93,132.76v-1c1-1.43,2.33-1.92,3.76-1.09,3.26,1.9,5.3,1.07,6-2.87,1.92,2,.07,3.42.26,4.92-1.1,1.58-2.66,1.2-4.19,1C92.05,132.23,89.83,133.46,87.93,132.76Z" transform="translate(-0.01)"/><path class="cls-33" d="M32.92,135.17c-4.16-3.06-4-7.86-5-12.24A23.4,23.4,0,0,1,32.92,135.17Z" transform="translate(-0.01)"/><path class="cls-35" d="M94.74,117.06c-3.38-3.83-4-8.33-3.1-13.23Q93.19,110.45,94.74,117.06Z" transform="translate(-0.01)"/><path class="cls-36" d="M70.15,103.48c-1.43,3.28-2.92,6.56-7.41,5.85C65.49,107.71,67.27,105,70.15,103.48Z" transform="translate(-0.01)"/><path class="cls-37" d="M68.46,99.8l1.89.35c-2.81,3.5-6.15,5.11-10.54,2.93l1.2-1C63.15,100.21,65.82,100.07,68.46,99.8Z" transform="translate(-0.01)"/><path class="cls-38" d="M121.88,78c1.18-.72,1-1.92,1.06-3,2.09,1.64,3,4,3.51,6.75Z" transform="translate(-0.01)"/><path class="cls-5" d="M110.93,142.47c4.09.35,2.7,3.69,2.56,5.62-.69,10-5,18.34-12.16,25.26a12,12,0,0,1-5.51,3.19c-1.91.47-4.47,1.18-5.65-.47-2.88-3.94-6.49-2.81-10.15-2.32a5,5,0,0,1-3,1.1c-4,3.6-8.11,2.37-11.65-.42C59,169.4,54.55,163,53,154.84c-1-2.56-.24-5.25-.45-7.86-.11-1.38,0-2.83,1.67-3.2a2.83,2.83,0,0,1,3.18,1.92,62.78,62.78,0,0,0,5.32,10.14c2.2,3.36,3.59,7.66,8.28,8.72a10.13,10.13,0,0,1,1.45.32c4.39,1.6,8.73,2.88,13.58,2.18,6.79-1,11.71-4.05,14.85-10.28,1.87-3.71,3.74-7.43,5.79-11.05C107.59,144.11,108.17,141.8,110.93,142.47Z" transform="translate(-0.01)"/><path class="cls-39" d="M110.93,142.47c-3.23,1.54-3.44,5.08-5,7.69s-2.83,5.25-4.33,7.82A21.49,21.49,0,0,1,72,165.74a1.58,1.58,0,0,1,0-2.15c4.41-.46,8.64,1.4,13.09,1,3.52-.36,6.84-.89,9.59-3.3,2.68-4.49,6.2-8.51,7.65-13.68.7-2.7-1.35-1.65-2.31-1.51a118.67,118.67,0,0,1-17.87,1.15,109.4,109.4,0,0,1-15.87-1.13c-1.53-.22-3.52-1-3.64,1.8a2.57,2.57,0,0,1-2.51,2.27c-2.24-3-4.72-5.75-6.17-9.21a3,3,0,0,1,3-2.07,69.92,69.92,0,0,0,16.46,3.2,55.22,55.22,0,0,0,19.19,0c5.23.08,10.14-2.18,15.37-2.15A2.77,2.77,0,0,1,110.93,142.47Z" transform="translate(-0.01)"/><path class="cls-14" d="M54,141c3.11,2.23,4.41,5.76,6.34,8.84a7.46,7.46,0,0,1,3.47,4c2,4.28,5.25,7.76,7.3,12-6.13-.38-7-6.17-9.73-9.88-1.92-2.67-4.05-5.58-4.56-9.17-.16-1.11-1.1-2.34-2.37-2.16S53,146.24,53,147.4c0,2.49,0,5,0,7.47C51.85,150.14,49.92,145.33,54,141Z" transform="translate(-0.01)"/><path class="cls-14" d="M93.06,143a45.65,45.65,0,0,1-20.21,0,5.85,5.85,0,0,1,1.21-1.82,90.69,90.69,0,0,0,17.82,0A5.46,5.46,0,0,1,93.06,143Z" transform="translate(-0.01)"/><path class="cls-14" d="M74.05,141.13c.81,1.41.06,1.78-1.21,1.81-5.51-.49-11.27,0-15.87-4.06C62.81,138.54,68.34,140.56,74.05,141.13Z" transform="translate(-0.01)"/><path class="cls-14" d="M93.06,143c-1.25,0-2-.42-1.18-1.8,3.83-.7,7.62-1.53,11.47-2,1.5-.19,3.47-1.6,4.65.76C103.28,142.3,98.23,142.9,93.06,143Z" transform="translate(-0.01)"/><path class="cls-16" d="M77,174.88c.41-2,1.84-1.23,3-1.1-1.78,4.51-.64,9.34-1.39,14.88C77.07,183.55,79.19,179,77,174.88Z" transform="translate(-0.01)"/><path class="cls-40" d="M69.23,132.93c2.86.7,6.17-2.81,8.69,1C75,133.58,72,134.63,69.23,132.93Z" transform="translate(-0.01)"/><path class="cls-41" d="M87.93,132.76c2.14-.76,4.33-1.78,5.89,1l-5.82.14C88,133.5,88,133.13,87.93,132.76Z" transform="translate(-0.01)"/><path class="cls-42" d="M108,94.9c-1.82.18-1.6,1.13-.94,2.33.84,1.51,2.17,1.82,3.75,1.75a2.53,2.53,0,0,0,2.57-2.45c.19-1.86-.55-4.23,2.8-3.42,2.31,3.67,1.87,5.47-2.12,8.74l-7.44-.09c-4.76-1.34-3.49-5.84-4.72-9,1.59-1.35,3.45-.66,5.22-.64C107.82,92.9,108.62,93.68,108,94.9Z" transform="translate(-0.01)"/><path class="cls-43" d="M101.92,92.73c1.27.11,2.23.42,1.87,2.09-.62,2.92.75,5.11,2.85,6.94a22.8,22.8,0,0,0-2.48.19c-2.85.54-6.13.21-6.82-2.55C96.59,96.47,98.79,93.89,101.92,92.73Z" transform="translate(-0.01)"/><path class="cls-44" d="M114.08,101.85c1.41-2.74,3.81-5.25,2.12-8.74,3.59-.77,6.57.94,6.63,4.15.08,3.6-3.08,5.09-6.76,4.62A16.52,16.52,0,0,0,114.08,101.85Z" transform="translate(-0.01)"/><path class="cls-45" d="M108,94.9c-.59-.85-1.56-1.58-.88-2.82,1.24.28,3.22-1,3.58,1C111,94.6,109.48,95.08,108,94.9Z" transform="translate(-0.01)"/><path class="cls-46" d="M56.86,92.07c2,.14,4.26-1,6.13.72,2.45,4.15.67,6.91-2.93,9.11l-7.27-.11c-4.21-1.62-3.8-5.7-4.8-9,1.55-1.52,3.42-.75,5.18-.71a4.14,4.14,0,0,1,1.42,3c.08,1.44.54,2.82,2.25,2,1.92-.94.73-2.4,0-3.63A1.5,1.5,0,0,1,56.86,92.07Z" transform="translate(-0.01)"/><path class="cls-47" d="M48,92.76c1.17.12,2.35.12,2,1.93-.55,2.91,1,5.07,2.79,7.1-1.79,0-3.58.13-5.37.14a4.69,4.69,0,0,1-4.76-4.12C42.44,94.77,44.94,93.13,48,92.76Z" transform="translate(-0.01)"/><path class="cls-48" d="M60.06,101.9A11.26,11.26,0,0,0,63,92.79c4.07.58,5.29,3.39,5.46,7-2,2.33-4.71,2.35-7.45,2.26A1.71,1.71,0,0,0,60.06,101.9Z" transform="translate(-0.01)"/><path class="cls-49" d="M54.12,94.88c-.42-.91-1.43-1.6-1-2.82l3.7,0a2.37,2.37,0,0,0,.28.9C57,95,56.18,95.93,54.12,94.88Z" transform="translate(-0.01)"/><path class="cls-50" d="M71.08,165.79c-5.4-4.12-7.59-10.39-10.77-16l1.74-2.07a3,3,0,0,1,3.18,1c1.19,4.32,3.43,8.18,5.4,12.14.52.9,1.59,1.52,1.42,2.78L72,165.73A4.59,4.59,0,0,1,71.08,165.79Z" transform="translate(-0.01)"/><path class="cls-51" d="M70,161.76c-1.83-3.36-3.66-6.73-5.51-10.08-.6-1.07.11-1.84.5-2.7,1.7-1,3.58-.74,5.34-.45a74.32,74.32,0,0,0,27.25-.77c1.76-.36,3.6-.83,5.34.22.61,3.19-1.69,5.17-3.11,7.51L96,161.73A50.89,50.89,0,0,1,70,161.76Z" transform="translate(-0.01)"/><path class="cls-52" d="M102.94,148A85.67,85.67,0,0,1,65,149l-3-1.25-2.79-4.26c16.08,3.33,31.22,3.66,46.53,0C105.91,146.06,104.24,146.91,102.94,148Z" transform="translate(-0.01)"/><path class="cls-53" d="M70,161.76c3.89-1.41,7.6.9,11.52.46,4.8-.55,9.66-.36,14.5-.49-7.55,6.33-15.69,5.09-24,1.92Z" transform="translate(-0.01)"/><path class="cls-54" d="M54.12,94.88a2.28,2.28,0,0,0,3-1.9c2.23.46,3.11,1.92,2.2,3.91a3.26,3.26,0,0,1-4.56,1.74C53.13,97.83,52.15,96.51,54.12,94.88Z" transform="translate(-0.01)"/></svg>