<svg version="1.0" id="Capa_1" data-name="Capa 1" xmlns="http://www.w3.org/2000/svg"
 width="166.000000pt" height="253.000000pt" viewBox="0 0 519.65 792"
 preserveAspectRatio="xMidYMid meet"><defs><style>.cls-1{fill:#fefefe;}.cls-2{fill:#f9f9f9;}.cls-3{fill:#0b0807;}.cls-4{fill:#0b0808;}.cls-5{fill:#e1b394;}.cls-6{fill:#e2b399;}.cls-7{fill:#f9b684;}.cls-8{fill:#f2b47f;}.cls-9{fill:#080606;}.cls-10{fill:#0d0a0b;}.cls-11{fill:#1c100e;}.cls-12{fill:#201312;}.cls-13{fill:#222;}.cls-14{fill:#1b0a06;}.cls-15{fill:#c9c9c9;}.cls-16{fill:#c8c8c8;}.cls-17{fill:#f9b788;}.cls-18{fill:#272b2c;}.cls-19{fill:#191a19;}.cls-20{fill:#f7b688;}.cls-21{fill:#150403;}.cls-22{fill:#cf8161;}.cls-23{fill:#e8b396;}.cls-24{fill:#d0a58d;}.cls-25{fill:#6d2f1e;}.cls-26{fill:#dfb49e;}.cls-27{fill:#ca7c60;}.cls-28{fill:#ebb497;}.cls-29{fill:#636566;}.cls-30{fill:#e9b799;}.cls-31{fill:#2a160f;}.cls-32{fill:#2a180e;}.cls-33{fill:#e6b999;}.cls-34{fill:#1e0a07;}.cls-35{fill:#251b0f;}.cls-36{fill:#d78c63;}.cls-37{fill:#7a431f;}.cls-38{fill:#d99268;}.cls-39{fill:#e4b48e;}.cls-40{fill:#deb18f;}.cls-41{fill:#7f4628;}.cls-42{fill:#803d18;}.cls-43{fill:#e3986f;}.cls-44{fill:#42281f;}.cls-45{fill:#48210b;}.cls-46{fill:#f5b78a;}.cls-47{fill:#1b0805;}.cls-48{fill:#e8b79c;}.cls-49{fill:#cda9a0;}.cls-50{fill:#ceb795;}.cls-51{fill:#dbbb8f;}.cls-52{fill:#020201;}.cls-53{fill:#956e56;}.cls-54{fill:#a26c56;}.cls-55{fill:#504032;}.cls-56{fill:#f7f0e9;}.cls-57{fill:#f8f2ef;}.cls-58{fill:#eae6e3;}.cls-59{fill:#533e34;}.cls-60{fill:#f4f0eb;}.cls-61{fill:#f4f0e8;}.cls-62{fill:#eee6e8;}.cls-63{fill:#2b0805;}.cls-64{fill:#580505;}.cls-65{fill:#e7e0de;}.cls-66{fill:#eadee1;}.cls-67{fill:#190906;}</style></defs><path class="cls-1" d="M73,791c-25,0-25,0-25-25q0-376.62-.3-753.22C47.67,2.1,49.78,0,60.49,0Q307.44.66,554.38,0c10.7,0,12.82,2.1,12.8,12.81q-.57,379.73.16,759.46c0,16.05-3.17,22.24-19.23,18.82-2-.43-4.15-.06-6.23-.06-7-8.69-4.7-18.95-.62-26.59,8.74-16.38,6.56-33.39,5.22-50-2.42-29.92-4.76-59.93-11.27-89.41-5.34-24.21-19.25-39.4-43.49-45.29-18.12-4.41-36.25-8.85-54.24-13.73-5.31-1.44-13.07-.62-14.33-9.08,17.65-17.22,30.73-37.34,38.43-60.86,8.87-21.55,19.26-42.55,23.74-65.7,1.51-7.81,7.37-12,13.36-16.39,33-24,53.27-82.18,42.43-121.43-2.09-7.56-4.48-15-11.6-19.56a41,41,0,0,1-4.33-2.21c-12.83-3.32-13.21-12.92-11.68-23.34,6.16-41.88-.32-82.33-14.22-121.81A106.48,106.48,0,0,0,477.67,90C437.83,38.94,385.4,13.06,320.81,10.6,267.13,8.56,217.92,21,174.47,53.44,124.83,88.13,101.59,136.9,99.3,196.29c-.75,19.62-1.36,39.36,1,59,.57,4.75.7,9.39-3.92,12.54C80.18,271.29,73,282.68,71.51,297.91c-3.3,34.23,3.25,66.34,22.6,95.3,3.19,4.78,6.33,10.28,11.26,12.82,18.72,9.62,24.19,27,29.29,45.38A288,288,0,0,0,155.93,505c2.47,5.67,4.19,11.68,7.57,17,5.13,9,11.47,17.23,17.06,25.92,6.26,9.73,4.51,15.08-6.68,18.52a396.57,396.57,0,0,1-42.18,10.31c-15.45,2.95-30.11,7.76-40.16,21.12-3.47,5.24-7.85,9.86-10.36,15.74-8.51,28.57-9.54,58.26-13.09,87.54-1.18,9.73-.61,19.6-2.65,29.41-1.91,9.18-1.82,18.77,6.26,26C74.52,767.92,77.27,779.35,73,791Z" transform="translate(-47.68 0)"/><path class="cls-2" d="M482.48,791H129.26c-8.41-14-4.88-29.53-4-44.12,1.84-29.45,5.6-58.8,12.8-86.91a224.09,224.09,0,0,0-13.82,77.73c-.07,21.1-6,25.62-26.91,21.63-4.06-.77-8.16-1.5-12.21-2.37-11.34-2.44-16.92-9-16.48-20.87.39-10.34-.93-20.86,4.56-30.38,14.26-.37,12-8.84,9.76-18.48-2.48-10.54-5.1-21.19-4.87-32.22.63-19.59,2.36-38.89,13.93-55.73,7.18-7.91,16.41-12.24,26.46-15.28,18.3-5.52,37.05-9.33,55.32-14.85,13.13-4,21.93-1,27.24,12,1.94,4.74,5.37,8.8,7.83,13.33,23.44,42.91,57,77.49,91.81,111,5.18,5,8.54,4.66,14.24.07,34-27.39,60.55-60.9,82.41-98.4,4.25-11.26,10.78-21.23,17.65-31,3.31-4.71,6.67-9.44,13.43-9.13,3.1.32,6.11,1.1,9.17,1.64,13.72,2.78,27.22,6.45,40.71,10.13,5.88,2,11.81,3.92,17.7,5.92,12.32,4.69,22.94,11.62,30.32,22.88a109.55,109.55,0,0,1,9.39,56.18c-1.85,7.5-4.29,14.87-5.24,22.63-1.14,9.31-3.09,18.89,10.87,20,2.9,8,1.83,16.49,2.89,24.7,2.53,19.72-.11,23.05-20.21,27-1.52.3-3.06.56-4.58.86-26.81,5.3-32.6,1.27-32-25.29.69-29.43-7.32-56.8-15.85-82.61,10.78,41.65,17.91,85.27,15,130.11A16.48,16.48,0,0,1,482.48,791Z" transform="translate(-47.68 0)"/><path class="cls-3" d="M435.54,571.62c-2.41.45-4.76.66-6.45-1.67-2.3-4.26-8.82-3.2-10.47-8.42-1-3.28-.93-6.43,1.94-8.3,2.33-1.53,4.94-1,5.55,2.53-3.22,2.83-2,3.36,1.57,4.18,22.2,5.14,44.4,10.31,66.47,16,23.61,6.07,39.24,21,44.46,44.91,8.87,40.69,10.65,82.26,14.23,123.61.74,8.61-7.61,10.55-8.25,17.16-.94,9.81-1.81,19.62-2.71,29.43H529.37a7,7,0,0,1-1.63-4c-.33-5.82,3.89-14-2.38-16.85-7.73-3.47-17.42-1.67-25.16,1.67-8.1,3.49.2,13.65-5.21,19.21H482.48c2.22-49.79-4.52-98.69-14.81-147.37,16.92,19.74,20.84,43.9,23.71,68.29,1.21,10.27,2.15,20.78,1.32,31-1,12.46,4.26,14.75,15.21,13.71,32-3,33.11-4,31.42-35.92-.31-5.69-.73-11.37-1.1-17.06-10.24-11.44-5.49-24.93-5.16-37.82-.55-19.77-2.85-39.23-10.4-57.74-4.18-13.66-14.38-19.36-27.68-21-5.76-.63-11.27-2-16.13-5.36C465.18,575.23,451,570.71,435.54,571.62Z" transform="translate(-47.68 0)"/><path class="cls-4" d="M76.56,703.69c-3,11.68-2.81,23.67-3.83,35.56C72,748,76.1,751.19,83.25,753c.5.13,1,.32,1.5.43,33.71,7.22,33.49,7.21,35.33-27.6,1.15-21.79,4.32-43.34,12.67-63.69,2.64-6.42,4.43-13.81,13.69-19.06a548.6,548.6,0,0,0-17.18,148h-9.38c-1.07-1.15-2.61-2.42-2.56-3.81.47-14.49-8.22-17.17-20.55-18.57-9.09-1-11.18,1.3-10.6,9.35.34,4.7-.07,9.41-3.8,13H73l-3.66-33c-6.71-6.55-6.24-15-5.59-23.18,3.39-42,6.46-84.1,15.31-125.47-.79-6.6,8.3-6.65,8.41-12.65a7.79,7.79,0,0,1,4.57-1.1c2.4.92,4.24,2.16,3,5.19-9.85,17.08-12.88,35.78-13.12,55.14-3.79,10.08,2,20.26-.34,30.42C80.2,692.23,81.22,698.76,76.56,703.69Z" transform="translate(-47.68 0)"/><path class="cls-5" d="M495,791c-.64-4.56-1.14-9.15-1.95-13.68-1.54-8.63,1.43-12.73,10.64-11.49a41.08,41.08,0,0,0,9.27-.1c22.87-2.18,23.39-1.5,16.84,22.77-13.79-16-17.26-15.71-28.55,2.5Z" transform="translate(-47.68 0)"/><path class="cls-6" d="M82.37,791c-.3-9-4.17-20.69,0-26.36,4.78-6.44,16,2.91,24.71,1.3,10.51-1.92,13.82,2.9,12.38,12.86-.58,4,.21,8.13.38,12.2h-6.25c-1.16-1.73.11.62-1-1.13C100.77,771.63,96.15,771.82,85.5,791Z" transform="translate(-47.68 0)"/><path class="cls-7" d="M85.5,791c.33-8.46-2.52-18.65,11.65-18.81,13.16-.15,17.26,7,16.48,18.81Z" transform="translate(-47.68 0)"/><path class="cls-8" d="M501.24,791c.41-8.17-1.16-18.27,11.06-18.44,9.83-.13,18.88,2.75,17.49,15.94a1.73,1.73,0,0,1-.42,2.5Z" transform="translate(-47.68 0)"/><path class="cls-9" d="M95,600.78l-3-3.49c5.14-12.82,17.22-16.12,28.5-19.55,17.78-5.42,36.6-6.73,54.24-12.93,12.6-4.43,13.8-8.15,5.43-18.52-6.51-8.07-13.45-15.78-19.74-24a27.66,27.66,0,0,1-6.72-14.34c-12.56-29.65-21.83-60.47-32.35-90.84-1.6-4.62-2.38-9-.87-13.65,3.26-6,7.48-5.59,12.2-1.84,3.77,4.67,5,10.53,5.32,16.06,1.08,19.06,6.75,36.72,14.68,52.77-.06,3.15,3.37,1.29,1.3,1.52-.77.09-.94-.25-1.07-.89-.65-3.12-1.41-6.5,2.31-8,2.81-1.16,4.83,1.14,6.46,3.11,2.36,2.85,3.59,6.35,4.62,9.83,9.64,32.49,25.29,61.17,52.81,82.46.58-10.46-4.25-20.24-5.29-30.59-.44-4.49-1.43-10.74,4.53-11.62s6.64,5.23,7.53,9.8c2.56,13.29,5.61,26.45,10.39,39.15,1.43,3.82,1.67,7.79,8.36,4.93,6.86-2.94,8.72,4.89,10,9,4.37,14,15.34,21.49,25.9,30.09,21.18,17.24,43.69,8.6,59.89-10.07,3.05-3.52,4.83-8.06,8.35-11.24,6.13-5.53,10-3.77,12.29,5.59,7.1-10.2,13.85-19,18.44-29.44,2.14-4.83,2.67-12.84,10.48-11.12,7.19,1.58,3.67,9.59,6.16,15.58,18.51-28.46,41-53.7,46.24-88.25.67-4.4,1.81-10.15,7.39-10.69,3.25-.31,4.46,3.61,4,6.22,21.78-34.3,27.07-73.44,27.34-113.81,3.42-41.07,6.85-82.29-3.62-122.7-5-19.37-6-39-8.79-58.54A70.17,70.17,0,0,1,469,162c.72-3.47,1.46-7.77,5.27-8.28s5.44,3.74,7,6.78c2.47,4.91,5.16,9.74,6.94,15,4.78,24.84,6.77,50.26,15.35,72.86-1.24-25.41,1.13-52.47-4-79.3-3.34-17.4-7-34.4-16.49-49.75-2.93-4.74-5.58-10-5.5-16a5.74,5.74,0,0,1,2.54-4c15.4,4.24,18.29,18.46,22.56,30.42,14,39.21,16.73,79.85,12.62,121.09-1.73,17.33-1.62,17.35,14.53,17.91l-.07-.07c2,3.08,1.21,5.69-1.3,8-4.76,2.59-10.92,3.46-12.41,10.11-3.24,10.49-5.28,21.28-8.36,31.8-5.58,23.73-3.24,48.34-8.09,72.11,1.35,5.17-6.44,12.75,4.12,15.59,1.39,2,1.25,4.56-.6,5.44-15.14,7.22-17.38,21.79-20.69,35.73-4.18,17.58-14.09,33.08-18.3,50.64-6.29,20.8-17.45,38.8-31.4,55.27a6.5,6.5,0,0,1-6.59,2.42c-7.13-2.93-6.82,1.39-4.48,5.37,1.89,3.2,6.8,4.25,7.46,8.82-3.46.24-6.85-.42-9.09,3.89-6.28,12.07-13.11,23.84-19.72,35.73-4.8.46-6.55-2.43-7.2-6.46,0-.44.09-1,.09-1.48,0-1.18.63-3.91-1.73-1.81-15.25,13.54-33.63,22.17-50.72,32.86-24.38,9.46-48.58,10.39-72.2-2.19-8.74-4.65-18.34-7.47-26.61-13-6.3-7.13-14-12.67-21.25-18.82-2.1-1.8-4.11-2.87-5.92.38-3.6,4.14-5.7-.33-8.39-1.42-7.88-8-8-24.12-18.7-26.32-10.05-2.07-22,3.77-32.81,7C134.36,584.26,112.31,586.24,95,600.78Z" transform="translate(-47.68 0)"/><path class="cls-10" d="M485.46,175.35c-4.92-4.86-6-12-9.7-17.25-3.19-4.56-1.85,1.92-3.2,2.69-7.8-1.79-9.34-9.17-12.82-14.67-9.31-14.74-22.15-22.1-39.91-23-21.37-1-41.19,4.92-60.95,11.12-39.83,12.5-78.82,9.85-117.55-4.43-26.65-9.83-52.61-11.37-77,6.68-18.49,13.67-24.34,32.67-24.56,54.52-.15,14.39,1.88,29.29-7.65,42-17.66,14.07-10.81,33.09-8.7,50.22a96,96,0,0,1-.36,24.52c-.48,3.71-2.33,7.23-6.33,8.14-5,1.13-5.92-3.33-7.13-6.52-1.69-4.43-4.72-8.08-6.61-12.36-1.35-2.59-2.53-5.27-3.64-8a41.42,41.42,0,0,0-6.44-12.73c-3-4.26-2.22-7.8,2-10.7,2.48-25.19-1.8-50.36.46-75.67,4.79-53.66,24.41-99.38,67.15-133.7,3.12-2.5,7-4.09,10.47-6.11,2.87,2.59,3.25,5.91,2.79,9.47-4.09,11.14-12.25,19.66-20.94,26.68-23.07,18.63-32.37,45.2-38.24,71.59C111,183.22,104.4,209.59,111,235.11a417.67,417.67,0,0,0,10.71-72.36c2.31-43.13,60.32-80.62,98.8-65.66,16.57,6.45,33.17,13.61,50.37,19,24.48,7.71,48,8.7,71.25-2,28.77-13.19,58.6-19.83,90.3-17.93C468,98.35,499.22,144.82,485.46,175.35Z" transform="translate(-47.68 0)"/><path class="cls-9" d="M173,59.6l0-9.4C215.94,16.78,265.15,6,318.75,6.94,377.67,8,426.57,29.77,467.54,71c4.67,4.7,8.19,10.54,12.24,15.86.86,4.5,7.19,9.19-.42,13.43h0c-7.95,1.64-10-5.37-14.08-9.52C448.89,74,433.74,55.58,410.78,46.87c-31.19-20.94-66.54-24.7-102.73-25-43.2-.31-83.19,10.45-119.3,34.6C183.68,58.41,179.34,64.11,173,59.6Z" transform="translate(-47.68 0)"/><path class="cls-11" d="M94.9,265.68c-1.53,3.07-2.41,6.13,0,9.2C78.36,291.53,78.11,311.72,82,333c3.68,20.18,9,39.67,22.08,56.06,4.15,5.2,8,11.06,15.31,12.63a5.8,5.8,0,0,1,3.64,1.82c4.59,30.22,15.5,58.53,26.35,86.84,2.21,5.75,6,11,4.38,17.6a240.42,240.42,0,0,1-27.67-72.18c-1.83-8.51-4.92-14.6-13.37-19.05-18.51-9.75-28.11-27.49-35.19-46.11-10.69-28.1-16.63-56.94-6.61-86.76C74.73,272.41,81.86,265.05,94.9,265.68Z" transform="translate(-47.68 0)"/><path class="cls-12" d="M464.1,498.07c4.22-26,17.5-49.25,22.85-74.93,1.6-7.64,14.41-6.9,13.63-16.88-.76-5.3,3-8.53,5.64-12.28,25.08-35.29,36.12-72.94,19.31-115.27a5.45,5.45,0,0,1,.13-3.06c2.93-1.43,3.53-4.21,4.07-7,14.06,5.55,16.53,18.75,17.08,30.71,2.19,48.1-7.2,92-51,120.89-4.81,3.18-6.25,7.58-7.52,12.83C482.81,455.67,475.38,477.6,464.1,498.07Z" transform="translate(-47.68 0)"/><path class="cls-12" d="M479.36,100.32c3.27-4.38-.53-9,.42-13.43,22.79,25.21,32.06,56,36.33,88.74,3.36,25.76,5.71,51.72.39,77.35-2.67,12.87,7.88,11.41,13.3,15.72-2.95.95-5.85,2.11-8.86,2.82-8.61,2-10.9-.22-9.64-9.9,5.74-44.28,3.75-88.23-10.23-131C497.13,118.56,491.32,107,479.36,100.32Z" transform="translate(-47.68 0)"/><path class="cls-13" d="M160.46,522.26c8.31,7.78,17.11,15.12,24.8,23.46,8.83,9.57,6.64,15.28-5.93,20.24-17.46,6.9-36.27,7.83-54.17,12.71-12.61,3.43-24.24,8.6-33.14,18.62l-4.56-.6c7.66-12.11,19.31-17.91,32.79-21.12,21-5,41.92-10.28,63.63-15.63C177.13,545.38,163.74,536.92,160.46,522.26Z" transform="translate(-47.68 0)"/><path class="cls-13" d="M79.05,609.34q-5.46,49-11,97.93c-1.94,17-3,33.9,1.23,50.72-5.45-1.82-8.58-5.09-8.27-11.34,2.21-44.36,6-88.53,15.06-132.1C76.5,612.69,78.05,611.07,79.05,609.34Z" transform="translate(-47.68 0)"/><path class="cls-14" d="M395.05,603.87l5.23,5.7c-22.18,37.95-49.61,71.43-83.81,99.27-5.23,4.26-8.84,7.47-15.55,1.43-36.82-33.15-70.14-69.13-94.57-112.64,2.69,0,5.93,2.67,7.79-1.54,11.32,2.84,13,14.45,19.71,21.52,1.54,2.41,3,4.87,4.62,7.23,16.92,25.06,39.4,45.06,60.34,66.47,6.87,7,13,7.06,19.92.3C339,671.7,359.52,652,374.34,627.3,381.9,620.07,382.73,606.89,395.05,603.87Z" transform="translate(-47.68 0)"/><path class="cls-15" d="M76.56,703.69c-.35-16.16,1.85-32,5.35-47.77,2.3,14.19,4.89,28.34,6.72,42.59.57,4.43,6.8,10.37-.64,13.48C81.46,714.71,80.47,706.46,76.56,703.69Z" transform="translate(-47.68 0)"/><path class="cls-16" d="M533.07,665.89c4.31,12.25,2.67,25.32,5.16,37.82-4.18,2.84-5.38,11.86-12.61,7.89-5.36-2.94-.2-8.18.15-12.39C526.73,687.78,525.46,675.86,533.07,665.89Z" transform="translate(-47.68 0)"/><path class="cls-9" d="M435.54,571.62c-.76-2.27-2.18-6.06,1.82-5.18,14.28,3.16,28.49,6.83,42.48,11.08,5.75,1.75,2.73,3.59-1,4.31Z" transform="translate(-47.68 0)"/><path class="cls-9" d="M495,587.19c10.64-6.15,26.28,5.7,27.68,21C515,599.14,506.33,591.39,495,587.19Z" transform="translate(-47.68 0)"/><path class="cls-17" d="M129.37,231.67c7.17-12.3,5.86-25.92,6.08-39.29.9-55.73,42.18-86.5,95.76-70.12,28.84,8.82,57.07,18.65,88,15.82,16.72-1.53,32.44-6.63,48.51-10.61,7-1.74,13.9-4,20.95-5.65,45.52-10.44,64.08-1.77,83.86,39,.39,30.74,6.89,60.49,12.46,90.61,6.92,37.39,3.68,75.67.14,113.54-1.81,17.3-4.07,34.56-9.78,51.06-3.21,9.27-7.26,18.41-18.15,21.43-5.27,1.43-10.21-5.85-16.59,1.05-3.83,4.14-10.27-2.12-15.18-4.82-17-15.5-36.89-19.83-59.09-15.06a17.2,17.2,0,0,1-10.65-.63c-3.16-.52-1.23-8.78-8.61-4.34-6.78,4.08-16-3.45-23.68,1.64-10.72,7.89-21.54,9.48-32.67.73-3.82-3-7.94-3.78-13.06-2.89-16.54,2.89-17.41,1.84-17.26-15.8-3.64,6.25,3.95,13.49-.86,20.24-5.51,2.95-11.14,1.26-16.57.06-25.76-5.71-44.58,6.53-61.67,23.44-9.84,4.1-17.56-5.4-27-4.22-6.26-3.13-4.56-9.88-6.8-14.86-3.19-13.16-7.85-25.64-16.21-36.52a26.06,26.06,0,0,1-3.24-7.12c-4.86-23.51-8.89-47-5.21-71.2,2.74-18-2.58-35.93-.9-54.13C122.77,244.76,124,237.82,129.37,231.67Z" transform="translate(-47.68 0)"/><path class="cls-18" d="M414.62,47.2c13.24-.67,21.08,8.85,29.32,16.58,12.35,11.59,23.65,24.31,35.4,36.55,25.4,43,30.1,90.14,28.15,138.67-.24,6.16.79,12.55-4.58,18.29-11.66-26.37-15.6-53.92-17.44-81.94,1.61-30.33-8.57-54.7-35.79-70.34-3.1-1.78-6.7-4.56-9.79-4.23C415.43,103.37,391,97,366.3,109.87c-24,12.55-51.62,22.39-80,14.95-16-4.21-31.7-12.17-47-17.35-17.6-6-36.92-15.4-60.07-5.35-27.55,11.95-47.15,27.37-52.56,56.7-4.1,22.29-5,45.13-9.38,67.52-1.55,7.92-4.36,14.36-9.16,21.81-7-48.58.37-93.63,21-136.87C139.3,90,160.73,78.79,173,59.6c5.45.52,8-5.21,12.88-6,17.16-2.76,30.58-14.37,47-19.41,41.86-12.88,84-16.13,127.08-7.91A162.14,162.14,0,0,1,414.62,47.2Z" transform="translate(-47.68 0)"/><path class="cls-19" d="M179.08,441c14.65-25,37.17-31.68,64.33-27.57,5.56.85,11.15,1.44,16.73,2.15a4.58,4.58,0,0,1,4.55-.45c8.68,2,17.7-2,26.31,1.43,10.91,7.63,21.82,7.69,32.74,0a41.06,41.06,0,0,1,16.69-1.09c4.67,1.23,9.35-.68,14,0,7.11-.82,14.23-1.56,21.32-2.47,20.77-2.68,38.45,3,52.37,19.1,6.58,4.41,8.86,12.24,14.1,18.16,5.62-4.15,5.17-12.87,12.28-15.35,8.88.66,10.77-6.63,13.79-12.38,9.46-18,12-38.15,16.85-57.55-.64,42.74-7.06,83.92-33.19,121.12-.5-5.36-.9-9.68-1.3-14-8.52,41.71-32.49,74.16-59.45,107.16-4.12-9.46,4.59-17.17-2.74-25.56-8,18.26-16.2,35.2-31.93,48.68-2.4-5.51,3.08-10.31-1.61-16.58C341,606.89,324.83,628.46,297,621.33c-24.5-6.29-42.94-23.56-49.65-50-4.1,2.5-.73,9-6.18,8.81-5.06-.21-6.27-5.27-7.45-9-5.51-17.32-10.8-34.73-14.83-52.64-2.46,16.68,6.39,32.15,5.35,49.23-36.33-25.5-54.77-62.1-66.19-105.43-6.17,8.42,2.56,14.27-1.93,19.69-17.45-23.26-21.53-50.58-23.79-78.44-4-7.31-17.26-14.6-.08-22l3,3.28c5.55,12.62,8.46,26.3,15.48,38.32q1.42,6,2.84,11.92c4.91,1.83,9.16,5,13,8.25C172.25,448.19,175.53,445,179.08,441Z" transform="translate(-47.68 0)"/><path class="cls-20" d="M236,625.36l-4.58-5.68c1.72-5.2,3.29-10.63,10.75-6.91,24.27,11.32,46.64,28.21,76.29,22.72,8.29-1.54,15.76-4.52,23.58-6.93,10.44-.77,19.93-9,31.11-4,2.23,4.11-.7,6.79-2.78,9.61a483.51,483.51,0,0,1-41.18,48.34c-12.93,13.46-29,13.33-41.79-1.3-13.24-15.2-29.48-27.71-40.36-45C244.25,631.82,240.11,628.51,236,625.36Z" transform="translate(-47.68 0)"/><path class="cls-21" d="M132.27,381.54c-10.69,7.37-.64,14.66.08,22-3.11-.91-6.2-5-9.34,0l-2.56-.06c-5.85-3.83-9.1-9.11-9-16.24-.81-27.42,2.48-55.37-12.35-80.78-3.08-5.26-7.42-13.7,5.91-12.25,4.49,6,9.46,11.75,11,19.91,3.13-10.23,8.1-19.1,2.63-30.36-6.72-13.83,1-45.61,10.78-52-6.48,44.89-5,89.7,1.12,134.48C131.19,371.27,131.68,376.41,132.27,381.54Z" transform="translate(-47.68 0)"/><path class="cls-22" d="M495.91,394.21c3.35-26,.66-52.59,8.59-78,13.84,4,10,15.34,10.6,24.86-.22,2.18,3.07.44,1,.5-.05,0-.08-.15-.11-.47-.78-8.57-1.66-16.87-5.33-25.1-4.88-10.9-.44-17.7,12.51-22.78,6.76,3.66,9,10.28,9.13,17,.43,28.1-6.38,54.32-22.5,77.65C506.64,392.39,503,397.49,495.91,394.21Z" transform="translate(-47.68 0)"/><path class="cls-23" d="M495.91,394.21c18.06-8.62,21.44-27.38,26.64-43.18,6-18.15,10.38-38,.55-57.09-3-3.39-13.19,1.1-10-9.1-.44-9.36,5.42-10.12,12.53-9.19,17.38,20.43,12.52,44,8.41,66.87-4.4,24.53-15.38,46.15-33.49,63.74C493.51,408.23,493.51,408.23,495.91,394.21Z" transform="translate(-47.68 0)"/><path class="cls-24" d="M373,626.09c-10.56-2.11-20.13,8.23-31,2.47,19.2-13.66,41.41-22.93,59.33-39.49q-3.13,7.39-6.29,14.8l-18.25,25.5C374.72,629.22,374.18,627.27,373,626.09Z" transform="translate(-47.68 0)"/><path class="cls-25" d="M513.13,284.84c.88,2.53,0,6.71,5.35,4.41,4.54-2,5.21,1,4.62,4.69-11,5.58-14.77,13.55-8.83,25.24,4.16,8.19,3,16.9,1.74,28-4.52-11.82,1-24.87-11.51-31Q508.82,300.5,513.13,284.84Z" transform="translate(-47.68 0)"/><path class="cls-26" d="M242.14,612.77c-5.31-.37-6.81,5.16-10.75,6.91l-17.25-23.59c-5.07-11,4.81-4.12,5.18-3.66C225.84,600.47,236.55,603.79,242.14,612.77Z" transform="translate(-47.68 0)"/><path class="cls-27" d="M105,294.15c-.34,2.79-9.29-1-3.94,7.32,17.12,26.59,16.29,56.63,13.36,86.69-6.34,2.22-10.27-2-12.8-6.24-15.78-26.49-26.24-54-16.9-85.72,2.91-9.9,7.64-12.87,16.92-8.74Z" transform="translate(-47.68 0)"/><path class="cls-28" d="M101.61,287.46c-12.89-2.13-11.81,8.62-14.07,15.74-8,25.25,6.13,69.5,26.85,85-1.65,6.55,9.39,8,6.06,15.26-5,9.4-8.55.42-10.79-1.73-17-16.27-25.52-37.2-30.1-59.69-3.5-17.15-5.92-34.54-.2-52,2.63-8,6.69-13.84,15.53-15.15C101.41,276.79,101.37,282.2,101.61,287.46Z" transform="translate(-47.68 0)"/><path class="cls-29" d="M414.62,47.2C393.69,40.86,373.56,32,352.07,27.33c-4.56-1-9-2.15-13.65-2.21-32.12-.35-64.44.44-95.05,10.33-13.18,4.26-27.8,6.23-39.64,15.54-4.11,3.23-10.88,9.21-17.84,2.66C252.16,11,322.23,7.17,395.09,33.51,402.62,36.23,411,38.53,414.62,47.2Z" transform="translate(-47.68 0)"/><path class="cls-30" d="M373,626.09l3.81,3.28c-16.31,26.79-37.84,49-61.45,69.27-3.25,2.8-6.5,7.52-11.75,2.51-24.59-23.45-50.15-46-67.63-75.8,9.4,1.09,12.31,8.65,17.61,15.08,11.33,13.75,24.42,26.05,36.07,39.77,10.47,12.32,31.91,10.76,40.48-2C342.8,659.39,360.05,644.55,373,626.09Z" transform="translate(-47.68 0)"/><path class="cls-31" d="M343.43,312.23c-.53-4.94,1.8-9.15,4.11-13.06,3.18-5.38,6.12-10.36,1.06-16.1,1.91-4.12,5.57-6.79,9.63-6.84,23.08-.28,46.29-.77,68.85,5.1,11.46,3,19.72,16.49,17.29,26.14-2.81,11.15-18.08,19.59-30.08,17.5-11.71-2-23.36-2.31-35.13,1.6C361.8,332.35,353.71,328.65,343.43,312.23Z" transform="translate(-47.68 0)"/><path class="cls-32" d="M170.45,254.51c5.27-16.92,14.62-28.58,34.21-29.92,17.41-1.19,34.22-.66,50.47,6.27,6.09,2.61,12.34,7,10.61,13.39-2.49,9.17-10.77,4-15.8,2.32a167.77,167.77,0,0,0-36.49-7.82C196.89,237.16,182.82,243,170.45,254.51Z" transform="translate(-47.68 0)"/><path class="cls-33" d="M343.43,312.23c10.85,11.24,23.07,15.4,39.07,11.45,9.77-2.42,20.64-.94,31-.4,12.11.63,27.36-8.53,28.68-18,1.34-9.68-11.58-22.87-24.34-23.7-23.09-1.48-46.31-6.14-69.21,1.51,2.33-8.32,6.88-12.37,16-9,6,2.2,12,.78,18.28-.22,19.82-3.17,38.3,2.22,55.18,12.13,9.44,5.53,15.17,14.84,12.2,26.36-3.56,13.81-19.06,16.57-27,15-20.87-4.19-39.67,2.25-59.33,4.55C352.33,333.2,342.23,323,343.43,312.23Z" transform="translate(-47.68 0)"/><path class="cls-34" d="M234.88,322.69c-11.91.18-23.83.24-35.75.56s-26.3-9.08-27.34-18.09c-1.14-9.85,11.54-22.66,24.48-23.53,17-1.15,34.14-1.54,51.22-1.92,11.66-.27,11.32.08,14.53,11.58,2.06,7.38,11.18,12.86,5.87,22.23a8.14,8.14,0,0,1-4.29.35c-7.22-6.29-8.08-18.83-20.08-20.43-5.79-1.67-11.72-1.58-17.66-1.48-3.82.06-7.63,0-11.43,0-5.16.11-10.38-.37-15.36,1.51-6.38,2.29-13.87,4.38-12.06,13.18,1.71,8.27,9.31,8.4,16.14,8.6,4.12.12,8.23-.18,12.36-.26,6.45.08,12.92-.53,19.29,1.05a10,10,0,0,1,4.26,2.74C239.29,321.83,238.55,323.82,234.88,322.69Z" transform="translate(-47.68 0)"/><path class="cls-35" d="M429.23,244.2c-22.09-10.25-43.48-4.09-65.09,2.17-4.66,1.35-11.89,7.07-15-.55-3.07-7.46,3.57-11.91,9.77-15.06,21.72-11,59-9,73.64,4C434.38,238.94,436.8,243.32,429.23,244.2Z" transform="translate(-47.68 0)"/><path class="cls-36" d="M235.79,194.49c47.79,3.76,95.57,4.86,143.35-.07C331.37,206.47,283.59,206.67,235.79,194.49Z" transform="translate(-47.68 0)"/><path class="cls-37" d="M323.17,419.07c-10.51,8.9-21,9.29-31.57,0-8.45-6.67-18.48,1.22-27.19-3l-4.27-.58c-4.05-8.81-4-17.25,1.87-25.87,3.12,4.27-.11,7.62.15,10.94.58,7.55,1.23,15.41,12.61,9.62,4.55-2.32,10.34-4.19,14.55,0,10.82,10.76,21.94,9.07,33.62,2.12a4.05,4.05,0,0,1,.23,6.7Z" transform="translate(-47.68 0)"/><path class="cls-38" d="M361.68,179.45c-25,11.92-84.81,11.9-108.69,1C289.22,185.24,325.44,188.13,361.68,179.45Z" transform="translate(-47.68 0)"/><path class="cls-39" d="M454.52,434.87c-4.37,7.92-5.73,17.41-12.8,24.93-4.74-9.67-9.16-18.71-13.58-27.74,6,1.33,11.55,9.64,17.92-1C449.25,425.76,449.7,437.64,454.52,434.87Z" transform="translate(-47.68 0)"/><path class="cls-40" d="M179.08,441c-1.3,4.42-2.59,8.83-4.44,15.11-4.8-10.58-17.95-10.19-21.08-21C163.53,430.74,170.68,438.56,179.08,441Z" transform="translate(-47.68 0)"/><path class="cls-41" d="M322.94,415.59v-3.22c3-4.47,7.3-6,11.78-3.4,10.18,5.93,16.58,3.34,18.93-9,6,6.16.23,10.71.8,15.42-3.42,4.94-8.33,3.75-13.09,3.2C335.83,413.94,328.89,417.78,322.94,415.59Z" transform="translate(-47.68 0)"/><path class="cls-40" d="M150.72,423.14c-13-9.59-12.64-24.61-15.48-38.32C144.33,396,149,409,150.72,423.14Z" transform="translate(-47.68 0)"/><path class="cls-42" d="M344.26,366.45c-10.57-12-12.64-26.07-9.71-41.42Q339.41,345.75,344.26,366.45Z" transform="translate(-47.68 0)"/><path class="cls-43" d="M267.27,323.94c-4.48,10.28-9.14,20.52-23.19,18.3C252.7,337.19,258.27,328.54,267.27,323.94Z" transform="translate(-47.68 0)"/><path class="cls-44" d="M262,312.43l5.92,1.09c-8.81,10.94-19.26,16-33,9.17l3.74-3.19C245.36,313.71,253.73,313.26,262,312.43Z" transform="translate(-47.68 0)"/><path class="cls-45" d="M429.23,244.2c3.69-2.24,3.09-6,3.3-9.44,6.56,5.13,9.55,12.37,11,21.13Z" transform="translate(-47.68 0)"/><path class="cls-46" d="M394.94,446c12.81,1.1,8.46,11.54,8,17.58-2.15,31.2-15.63,57.41-38.05,79.08a37.89,37.89,0,0,1-17.24,10c-6,1.45-14,3.68-17.7-1.47-9-12.36-20.32-8.81-31.76-7.27a15.84,15.84,0,0,1-9.47,3.43c-12.56,11.28-25.37,7.44-36.48-1.32-19.91-15.72-33.8-35.83-38.67-61.32-3.19-8-.77-16.42-1.42-24.61-.34-4.31.12-8.85,5.24-10,4.74-1.05,8.35,2.18,9.95,6A196,196,0,0,0,244,487.84c6.89,10.53,11.23,24,25.9,27.31a33.76,33.76,0,0,1,4.56,1c13.73,5,27.33,9,42.51,6.83,21.24-3,36.66-12.7,46.49-32.19,5.85-11.6,11.68-23.27,18.11-34.58C384.47,451.13,386.3,443.91,394.94,446Z" transform="translate(-47.68 0)"/><path class="cls-47" d="M394.94,446c-10.12,4.82-10.76,15.9-15.76,24.08-4.87,7.94-8.85,16.41-13.53,24.47-18.9,32.56-59.47,43.14-92.62,24.28-1.86-2.26-1.64-4.5,0-6.73,13.82-1.43,27.05,4.4,41,3,11-1.1,21.4-2.76,30-10.31,8.4-14.06,19.41-26.66,23.94-42.83,2.2-8.46-4.21-5.17-7.23-4.72-18.56,2.8-37.17,3.59-55.93,3.6a344,344,0,0,1-49.69-3.54c-4.77-.7-11-3.08-11.37,5.63-1.05,4.13-3.3,6.92-7.87,7.11-7-9.25-14.78-18-19.32-28.85,1.66-4.3,4.84-6.38,9.4-6.46a218.87,218.87,0,0,0,51.52,10,172.41,172.41,0,0,0,60.07-.07c16.39.25,31.75-6.85,48.12-6.75C391.07,438.07,394.13,440.77,394.94,446Z" transform="translate(-47.68 0)"/><path class="cls-48" d="M216.62,441.22c9.73,7,13.81,18.06,19.87,27.7,5.54,2.54,8.46,7.43,10.86,12.61,6.18,13.39,16.42,24.29,22.85,37.51-19.2-1.21-22.09-19.34-30.47-30.94-6-8.36-12.67-17.48-14.27-28.71-.49-3.46-3.45-7.33-7.43-6.76-4.38.62-4.31,5.16-4.35,8.81-.07,7.78-.05,15.57-.07,23.36C210,470,203.94,454.94,216.62,441.22Z" transform="translate(-47.68 0)"/><path class="cls-49" d="M339,447.48c-21.08,4.91-42.17,4.58-63.26,0,.67-2.28,2.37-3.88,3.78-5.67,18.59,2.36,37.18,1.34,55.77.05C336.67,443.62,338.33,445.21,339,447.48Z" transform="translate(-47.68 0)"/><path class="cls-50" d="M279.49,441.8c2.53,4.41.18,5.58-3.78,5.67-17.25-1.54-35.29,0-49.69-12.72C244.29,433.7,261.6,440,279.49,441.8Z" transform="translate(-47.68 0)"/><path class="cls-51" d="M339,447.48c-3.91-.11-6.19-1.3-3.7-5.63,12-2.17,23.85-4.78,35.9-6.28,4.71-.59,10.87-5,14.56,2.39C371,445.45,355.18,447.35,339,447.48Z" transform="translate(-47.68 0)"/><path class="cls-52" d="M288.76,547.44c1.28-6.32,5.75-3.84,9.47-3.43-5.56,14.12-2,29.24-4.33,46.57C288.94,574.6,295.57,560.23,288.76,547.44Z" transform="translate(-47.68 0)"/><path class="cls-53" d="M264.41,416.14c8.93,2.19,19.3-8.8,27.19,3C282.53,418.16,273,421.46,264.41,416.14Z" transform="translate(-47.68 0)"/><path class="cls-54" d="M322.94,415.59c6.7-2.38,13.54-5.56,18.43,3l-18.2.44C323.09,417.91,323,416.75,322.94,415.59Z" transform="translate(-47.68 0)"/><path class="cls-55" d="M385.82,297.07c-5.68.56-5,3.55-2.92,7.31,2.62,4.72,6.77,5.68,11.71,5.47s7.64-3.39,8.07-7.66c.59-5.83-1.73-13.25,8.77-10.71,7.22,11.47,5.85,17.12-6.65,27.34l-23.28-.26c-14.92-4.2-10.94-18.28-14.8-28.27,5-4.22,10.82-2.07,16.36-2C385.2,290.82,387.72,293.26,385.82,297.07Z" transform="translate(-47.68 0)"/><path class="cls-56" d="M366.72,290.29c4,.34,7,1.3,5.86,6.54-1.93,9.15,2.35,16,8.94,21.73a69.33,69.33,0,0,0-7.78.6c-8.91,1.69-19.17.64-21.35-8C350.05,302,356.93,293.92,366.72,290.29Z" transform="translate(-47.68 0)"/><path class="cls-57" d="M404.8,318.82c4.42-8.57,11.92-16.41,6.65-27.34,11.23-2.41,20.54,2.93,20.74,13,.24,11.26-9.65,15.93-21.15,14.44A51.89,51.89,0,0,0,404.8,318.82Z" transform="translate(-47.68 0)"/><path class="cls-58" d="M385.82,297.07c-1.84-2.65-4.86-4.93-2.74-8.81,3.88.88,10.06-3.29,11.2,3.09C395.13,296.13,390.39,297.64,385.82,297.07Z" transform="translate(-47.68 0)"/><path class="cls-59" d="M225.68,288.22c6.42.44,13.32-3.11,19.17,2.24,7.69,13,2.12,21.65-9.15,28.53l-22.78-.34c-13.16-5.09-11.88-17.85-15-28.27,4.85-4.76,10.68-2.34,16.2-2.22,2.58,2.55,4.42,5.45,4.44,9.22.26,4.51,1.71,8.85,7.05,6.23,6-2.94,2.29-7.49.13-11.35A4.62,4.62,0,0,1,225.68,288.22Z" transform="translate(-47.68 0)"/><path class="cls-60" d="M197.9,290.38c3.66.38,7.37.38,6.3,6.05-1.72,9.11,3.12,15.87,8.72,22.22-5.6.15-11.19.41-16.79.42-8.66,0-14.47-6.65-14.91-12.87C180.55,296.66,188.35,291.55,197.9,290.38Z" transform="translate(-47.68 0)"/><path class="cls-61" d="M235.7,319c7.52-8.08,10.12-17.73,9.15-28.53,12.76,1.83,16.59,10.61,17.12,22-6.29,7.3-14.76,7.37-23.35,7.07A5.26,5.26,0,0,0,235.7,319Z" transform="translate(-47.68 0)"/><path class="cls-62" d="M217.09,297c-1.31-2.83-4.46-5-3-8.81l11.58.06a7.57,7.57,0,0,0,.89,2.82C226.22,297.51,223.56,300.29,217.09,297Z" transform="translate(-47.68 0)"/><path class="cls-63" d="M270.2,519c-16.92-12.89-23.77-32.54-33.71-50.12l5.44-6.47c4.07-1.36,7.18.33,9.95,3.1,3.72,13.52,10.73,25.59,16.89,38,1.63,2.82,5,4.75,4.45,8.69q-.09,3.32-.19,6.61A14.12,14.12,0,0,1,270.2,519Z" transform="translate(-47.68 0)"/><path class="cls-64" d="M266.88,506.38c-5.75-10.52-11.46-21.07-17.27-31.56-1.87-3.36.35-5.76,1.58-8.44,5.33-3.31,11.21-2.33,16.73-1.42,28.61,4.7,57,3.43,85.29-2.4,5.52-1.14,11.27-2.61,16.71.67,1.91,10-5.28,16.19-9.73,23.53l-11.87,19.53C321.18,513.53,294,513.28,266.88,506.38Z" transform="translate(-47.68 0)"/><path class="cls-65" d="M369.92,463.23C330.57,473,291,474.37,251.19,466.38l-9.26-3.93-8.74-13.33c50.34,10.42,97.74,11.45,145.67,0C379.21,457.24,374,459.89,369.92,463.23Z" transform="translate(-47.68 0)"/><path class="cls-66" d="M266.88,506.38c12.16-4.4,23.78,2.83,36.07,1.43,15-1.71,30.23-1.11,45.37-1.51-23.62,19.81-49.12,15.91-75.1,6Z" transform="translate(-47.68 0)"/><path class="cls-67" d="M217.09,297c5.1,1.12,8.21-.93,9.48-5.93,7,1.44,9.74,6,6.89,12.23-2.61,5.65-8.22,8.33-14.26,5.46C214,306.25,210.92,302.11,217.09,297Z" transform="translate(-47.68 0)"/></svg>