<?xml version="1.0" encoding="utf-8"?>
<!-- Generator: Adobe Illustrator 24.1.1, SVG Export Plug-In . SVG Version: 6.00 Build 0)  -->
<svg xmlns="http://www.w3.org/2000/svg" version="1.1" id="Capa_1" width="700.000000pt" height="700.000000pt" viewBox="0 0 700.000000 700.000000" preserveAspectRatio="xMidYMid meet">
<style type="text/css">
	.st0{fill:none;}
	.st1{fill:#F9F9F9;}
	.st2{fill:#0B0807;}
	.st3{fill:#0B0808;}
	.st4{fill:#F5B78A;}
	.st5{fill:#F9B684;}
	.st6{fill:#F2B47F;}
	.st7{fill:#080606;}
	.st8{fill:#0D0A0B;}
	.st9{fill:#222222;}
	.st10{fill:#1B0A06;}
	.st11{fill:#C9C9C9;}
	.st12{fill:#C8C8C8;}
	.st13{fill:#F9B788;}
	.st14{fill:#272B2C;}
	.st15{fill:#191A19;}
	.st16{fill:#F7B688;}
	.st17{fill:#150403;}
	.st18{fill:#CF8161;}
	.st19{fill:#E8B396;}
	.st20{fill:#6D2F1E;}
	.st21{fill:#CA7C60;}
	.st22{fill:#EBB497;}
	.st23{fill:#636566;}
	.st24{fill:#2A160F;}
	.st25{fill:#2A180E;}
	.st26{fill:#1E0A07;}
	.st27{fill:#251B0F;}
	.st28{fill:#D78C63;}
	.st29{fill:#7A431F;}
	.st30{fill:#D99268;}
	.st31{fill:#E4B48E;}
	.st32{fill:#DEB18F;}
	.st33{fill:#7F4628;}
	.st34{fill:#803D18;}
	.st35{fill:#E3986F;}
	.st36{fill:#42281F;}
	.st37{fill:#48210B;}
	.st38{fill:#1B0805;}
	.st39{fill:#956E56;}
	.st40{fill:#A26C56;}
	.st41{fill:#504032;}
	.st42{fill:#F7F0E9;}
	.st43{fill:#F8F2EF;}
	.st44{fill:#EAE6E3;}
	.st45{fill:#533E34;}
	.st46{fill:#F4F0EB;}
	.st47{fill:#F4F0E8;}
	.st48{fill:#EEE6E8;}
	.st49{fill:#2B0805;}
	.st50{fill:#580505;}
	.st51{fill:#E7E0DE;}
	.st52{fill:#EADEE1;}
	.st53{fill:#190906;}
</style>
<path class="st0" d="M529.8,10.4c0-8.7-1.7-10.4-10.3-10.4C399.2,0.3,278.9,0.3,158.5,0.1c-2,3.9-4.2,7.6-6.6,11.3
	c16.1,0.2,16,25.3-0.2,25.3c-6.6,0-10.5-4.1-11.7-9c-7.4,9.4-15.2,18.7-21.9,28.6c-1.5,2.2-3.3,3.6-5.2,4.5c-1,2.2-1.9,4.5-2.9,6.7
	c0.1,183.9,0.2,367.7,0.2,551.6c0,20.2,0,20.2,20.2,20.2c3.5-9.4,1.2-18.7-1.1-27.8c-6.5-5.8-6.6-13.6-5.1-21
	c1.6-7.9,1.2-15.9,2.1-23.8c2.9-23.7,3.7-47.7,10.6-70.7c2-4.8,5.6-8.5,8.4-12.7c8.1-10.8,20-14.7,32.5-17.1
	c11.5-2.2,22.9-4.9,34.1-8.3c9-2.8,10.5-7.1,5.4-15c-4.5-7-9.6-13.7-13.8-20.9c-2.7-4.3-4.1-9.2-6.1-13.7
	c-7.2-13.8-12.9-28.3-17.2-43.3c-4.1-14.9-8.5-28.9-23.7-36.7c-4-2.1-6.5-6.5-9.1-10.4c-15.6-23.4-20.9-49.3-18.3-77
	c1.2-12.3,7-21.5,20.1-24.3c3.7-2.5,3.6-6.3,3.2-10.1c-1.9-15.9-1.4-31.8-0.8-47.7c1.9-48,20.6-87.4,60.7-115.4
	C247.6,17,287.4,6.9,330.7,8.6c52.2,2,94.6,22.9,126.8,64.2c7.7,8.4,13.6,18.1,17.5,28.8c11.2,31.9,16.5,64.6,11.5,98.4
	c-1.2,8.4-0.9,16.2,9.4,18.9c1.1,0.7,2.3,1.3,3.5,1.8c5.8,3.7,7.7,9.7,9.4,15.8c8.8,31.7-7.6,78.7-34.3,98.1
	c-4.8,3.5-9.6,6.9-10.8,13.2c-3.6,18.7-12,35.7-19.2,53.1c-6.2,19-16.8,35.3-31.1,49.2c1,6.8,7.3,6.2,11.6,7.3
	c14.5,3.9,29.2,7.5,43.8,11.1c19.6,4.8,30.8,17,35.1,36.6c5.3,23.8,7.2,48.1,9.1,72.3c1.1,13.4,2.8,27.2-4.2,40.4
	c-3.3,6.2-5.2,14.5,0.5,21.5c1.7,0,3.4-0.3,5,0c13,2.8,15.5-2.2,15.5-15.2C529.6,419.5,529.5,214.9,529.8,10.4z"/>
<path class="st1" d="M461.4,639.2H175.9c-6.8-11.3-3.9-23.9-3.2-35.7c1.5-23.8,4.5-47.5,10.3-70.2c-7.4,20.1-11.2,41.4-11.2,62.8
	c-0.1,17.1-4.8,20.7-21.7,17.5c-3.3-0.6-6.6-1.2-9.9-1.9c-9.2-2-13.7-7.3-13.3-16.9c0.3-8.4-0.8-16.9,3.7-24.5
	c11.5-0.3,9.7-7.1,7.9-14.9c-2-8.5-4.1-17.1-3.9-26c0.5-15.8,1.9-31.4,11.3-45c5.8-6.4,13.3-9.9,21.4-12.3
	c14.8-4.5,29.9-7.5,44.7-12c10.6-3.2,17.7-0.8,22,9.7c1.6,3.8,4.3,7.1,6.3,10.8c18.9,34.7,46.1,62.6,74.2,89.7
	c4.2,4,6.9,3.8,11.5,0.1c27.5-22.1,48.9-49.2,66.6-79.5c3.4-9.1,8.7-17.2,14.3-25.1c2.7-3.8,5.4-7.6,10.9-7.4
	c2.5,0.3,4.9,0.9,7.4,1.3c11.1,2.2,22,5.2,32.9,8.2c4.8,1.6,9.5,3.2,14.3,4.8c10,3.8,18.5,9.4,24.5,18.5c6.5,14.2,9.1,29.9,7.6,45.4
	c-1.5,6.1-3.5,12-4.2,18.3c-0.9,7.5-2.5,15.3,8.8,16.2c2.3,6.5,1.5,13.3,2.3,20c2,15.9-0.1,18.6-16.3,21.8c-1.2,0.2-2.5,0.5-3.7,0.7
	c-21.7,4.3-26.3,1-25.9-20.4c0.6-23.8-5.9-45.9-12.8-66.8c8.7,33.7,14.5,68.9,12.1,105.1C464.5,634.2,463.3,637,461.4,639.2z"/>
<path class="st2" d="M423.4,461.9c-1.9,0.4-3.8,0.5-5.2-1.3c-1.9-3.4-7.1-2.6-8.5-6.8c-0.8-2.7-0.8-5.2,1.6-6.7c1.9-1.2,4-0.8,4.5,2
	c-2.6,2.3-1.6,2.7,1.3,3.4c17.9,4.2,35.9,8.3,53.7,12.9c19.1,4.9,31.7,17,35.9,36.3c7.2,32.9,8.6,66.5,11.5,99.9
	c0.6,7-6.1,8.5-6.7,13.9c-0.8,7.9-1.5,15.9-2.2,23.8h-10.1c-0.8-0.9-1.2-2-1.3-3.2c-0.3-4.7,3.1-11.3-1.9-13.6
	c-6.2-2.8-14.1-1.3-20.3,1.3c-6.5,2.8,0.2,11-4.2,15.5h-10.1c1.8-40.2-3.7-79.7-12-119.1c13.7,16,16.8,35.5,19.2,55.2
	c1,8.3,1.7,16.8,1.1,25.1c-0.8,10.1,3.4,11.9,12.3,11.1c25.9-2.4,26.8-3.2,25.4-29c-0.3-4.6-0.6-9.2-0.9-13.8
	c-8.3-9.2-4.4-20.1-4.2-30.6c-0.4-16-2.3-31.7-8.4-46.7c-3.4-11-11.6-15.6-22.4-17c-4.7-0.5-9.1-1.6-13-4.3
	C447.4,464.8,435.9,461.2,423.4,461.9z"/>
<path class="st3" d="M133.4,568.6c-2.4,9.4-2.3,19.1-3.1,28.7c-0.6,7.1,2.7,9.6,8.5,11.1c0.4,0.1,0.8,0.3,1.2,0.3
	c27.2,5.8,27.1,5.8,28.5-22.3c0.9-17.6,3.5-35,10.2-51.5c2.1-5.2,3.6-11.2,11.1-15.4c-10,39-14.7,79.3-13.9,119.6h-7.6
	c-0.9-0.9-2.1-2-2.1-3.1c0.4-11.7-6.6-13.9-16.6-15c-7.3-0.8-9,1.1-8.6,7.6c0.3,3.8-0.1,7.6-3.1,10.5h-7.6l-3-26.7
	c-5.4-5.3-5-12.1-4.5-18.7c2.7-33.9,5.2-68,12.4-101.4c-0.6-5.3,6.7-5.4,6.8-10.2c1.1-0.7,2.4-1,3.7-0.9c1.9,0.7,3.4,1.7,2.4,4.2
	c-8,13.8-10.4,28.9-10.6,44.6c-3.1,8.1,1.6,16.4-0.3,24.6C136.3,559.4,137.1,564.7,133.4,568.6z"/>
<path class="st4" d="M471.5,639.2c-0.5-3.7-0.9-7.4-1.6-11.1c-1.2-7,1.2-10.3,8.6-9.3c2.5,0.3,5,0.2,7.5-0.1
	c18.5-1.8,18.9-1.2,13.6,18.4c-11.1-12.9-13.9-12.7-23.1,2L471.5,639.2z"/>
<path class="st4" d="M138,639.2c-0.2-7.3-3.4-16.7,0-21.3c3.9-5.2,12.9,2.4,20,1.1c8.5-1.6,11.2,2.3,10,10.4
	c-0.5,3.2,0.2,6.6,0.3,9.9h-5.1c-0.9-1.4,0.1,0.5-0.8-0.9c-9.6-14.7-13.3-14.6-21.9,0.9H138z"/>
<path class="st5" d="M140.6,639.2c0.3-6.8-2-15.1,9.4-15.2c10.6-0.1,13.9,5.7,13.3,15.2H140.6z"/>
<path class="st6" d="M476.5,639.2c0.3-6.6-0.9-14.8,8.9-14.9c7.9-0.1,15.3,2.2,14.1,12.9c0.5,0.6,0.4,1.5-0.3,2c0,0-0.1,0-0.1,0.1
	H476.5z"/>
<path class="st7" d="M148.3,485.5l-2.4-2.8c4.2-10.4,13.9-13,23-15.8c14.4-4.4,29.6-5.4,43.8-10.4c10.2-3.6,11.2-6.6,4.4-15
	c-5.3-6.5-10.9-12.8-16-19.4c-2.9-3.3-4.8-7.3-5.4-11.6c-10.1-24-17.6-48.9-26.1-73.4c-1.3-3.7-1.9-7.3-0.7-11
	c2.6-4.8,6-4.5,9.9-1.5c3,3.8,4,8.5,4.3,13c0.9,15.4,5.5,29.7,11.9,42.6c0,2.5,2.7,1,1.1,1.2c-0.6,0.1-0.8-0.2-0.9-0.7
	c-0.5-2.5-1.1-5.3,1.9-6.5c2.3-0.9,3.9,0.9,5.2,2.5c1.9,2.3,2.9,5.1,3.7,7.9c7.8,26.3,20.4,49.4,42.7,66.6
	c0.5-8.5-3.4-16.4-4.3-24.7c-0.4-3.6-1.2-8.7,3.7-9.4s5.4,4.2,6.1,7.9c2.1,10.7,4.5,21.4,8.4,31.6c1.2,3.1,1.3,6.3,6.8,4
	c5.5-2.4,7,4,8.1,7.3c3.5,11.3,12.4,17.4,20.9,24.3c17.1,13.9,35.3,6.9,48.4-8.1c2.5-2.8,3.9-6.5,6.7-9.1c5-4.5,8.1-3,9.9,4.5
	c5.7-8.2,11.2-15.4,14.9-23.8c1.7-3.9,2.2-10.4,8.5-9c5.8,1.3,3,7.7,5,12.6c15-23,33.1-43.4,37.4-71.3c0.5-3.6,1.5-8.2,6-8.6
	c2.6-0.3,3.6,2.9,3.2,5c17.6-27.7,21.9-59.3,22.1-92c2.8-33.2,5.5-66.5-2.9-99.2c-4-15.7-4.8-31.5-7.1-47.3
	c-0.6-5-0.5-10.1,0.2-15.2c0.6-2.8,1.2-6.3,4.3-6.7c3.1-0.4,4.4,3,5.7,5.5c2,4,4.2,7.9,5.6,12.1c3.9,20.1,5.5,40.6,12.4,58.9
	c-1-20.5,0.9-42.4-3.2-64.1c-2.7-14.1-5.7-27.8-13.3-40.2c-2.4-3.8-4.5-8.1-4.4-12.9c0.2-1.3,0.9-2.5,2.1-3.2
	c12.4,3.4,14.8,14.9,18.2,24.6c11.3,31.7,13.5,64.5,10.2,97.9c-1.4,14-1.3,14,11.7,14.5l-0.1-0.1c1.6,2.5,1,4.6-1.1,6.5
	c-3.8,2.1-8.8,2.8-10,8.2c-2.6,8.5-4.3,17.2-6.8,25.7c-4.5,19.2-2.6,39.1-6.5,58.3c1.1,4.2-5.2,10.3,3.3,12.6c1.1,1.6,1,3.7-0.5,4.4
	c-12.2,5.8-14,17.6-16.7,28.9c-3.4,14.2-11.4,26.7-14.8,40.9c-5.1,16.8-14.1,31.4-25.4,44.7c-1.2,1.6-3.3,2.4-5.3,2
	c-5.8-2.4-5.5,1.1-3.6,4.3c1.5,2.6,5.5,3.4,6,7.1c-2.8,0.2-5.5-0.3-7.3,3.1c-5.1,9.8-10.6,19.3-15.9,28.9c-3.9,0.4-5.3-2-5.8-5.2
	c0-0.4,0.1-0.8,0.1-1.2c0-1,0.5-3.2-1.4-1.5c-12.3,10.9-27.2,17.9-41,26.6c-19.7,7.6-39.3,8.4-58.3-1.8c-7.1-3.8-14.8-6-21.5-10.5
	c-5.1-5.8-11.3-10.2-17.2-15.2c-1.7-1.5-3.3-2.3-4.8,0.3c-2.9,3.3-4.6-0.3-6.8-1.1c-6.4-6.5-6.5-19.5-15.1-21.3
	c-8.1-1.7-17.8,3-26.5,5.7C180.1,472.1,162.2,473.7,148.3,485.5z"/>
<path class="st8" d="M463.8,141.7c-4-3.9-4.8-9.7-7.8-13.9c-2.6-3.7-1.5,1.6-2.6,2.2c-6.3-1.4-7.5-7.4-10.4-11.9
	c-7.5-11.9-17.9-17.9-32.3-18.6c-17.3-0.8-33.3,4-49.3,9c-32.2,10.1-63.7,8-95-3.6c-21.5-7.9-42.5-9.2-62.2,5.4
	c-14.9,11-19.7,26.4-19.8,44.1c-0.1,11.6,1.5,23.7-6.2,33.9c-14.3,11.4-8.7,26.7-7,40.6c0.8,6.6,0.7,13.2-0.3,19.8
	c-0.4,3-1.9,5.8-5.1,6.6c-4,0.9-4.8-2.7-5.8-5.3c-1.4-3.6-3.8-6.5-5.3-10c-1.1-2.1-2-4.3-2.9-6.5c-1.1-3.7-2.9-7.2-5.2-10.3
	c-2.4-3.4-1.8-6.3,1.6-8.6c2-20.4-1.5-40.7,0.4-61.1c3.9-43.4,19.7-80.3,54.3-108c2.5-2,5.7-3.3,8.5-4.9c2.3,2.1,2.6,4.8,2.3,7.7
	c-3.3,9-9.9,15.9-16.9,21.6c-18.6,15.1-26.2,36.5-30.9,57.9c-4.5,20.5-9.9,41.8-4.5,62.4c4.6-19.2,7.5-38.8,8.7-58.5
	c1.9-34.9,48.7-65.1,79.8-53.1c13.4,5.2,26.8,11,40.7,15.4c19.8,6.2,38.8,7,57.6-1.6c23.2-10.7,47.4-16,73-14.5
	C449.7,79.5,474.9,117,463.8,141.7z"/>
<path class="st7" d="M211.3,48.2v-7.6c34.7-27,74.5-35.7,117.8-35c47.6,0.9,87.1,18.4,120.2,51.8c3.8,3.8,6.6,8.5,9.9,12.8
	c0.7,3.6,5.8,7.4-0.3,10.9l0,0c-6.4,1.3-8.1-4.3-11.4-7.7c-13.2-13.6-25.5-28.4-44-35.5c-25.2-16.9-53.8-20-83-20.2
	c-34.9-0.3-67.2,8.4-96.4,28C219.9,47.2,216.4,51.8,211.3,48.2z"/>
<path class="st7" d="M148.2,214.7c-1.2,2.5-1.9,5,0,7.4c-13.4,13.5-13.6,29.8-10.4,47c3,16.3,7.3,32.1,17.8,45.3
	c3.4,4.2,6.5,8.9,12.4,10.2c1.1,0.1,2.2,0.6,2.9,1.5c3.7,24.4,12.5,47.3,21.3,70.2c1.8,4.6,4.8,8.9,3.5,14.2
	c-10.6-18.1-18.1-37.8-22.4-58.3c-1.5-6.9-4-11.8-10.8-15.4c-15-7.9-22.7-22.2-28.4-37.3c-8.6-22.7-13.4-46-5.3-70.1
	C131.9,220.1,137.6,214.2,148.2,214.7z"/>
<path class="st7" d="M446.5,402.5c3.4-21,14.1-39.8,18.5-60.5c1.3-6.2,11.6-5.6,11-13.6c-0.6-4.3,2.4-6.9,4.6-9.9
	c20.3-28.5,29.2-58.9,15.6-93.1c-0.2-0.8-0.2-1.7,0.1-2.5c2.4-1.2,2.9-3.4,3.3-5.7c11.4,4.5,13.4,15.2,13.8,24.8
	c1.8,38.9-5.8,74.3-41.2,97.7c-3.9,2.6-5.1,6.1-6.1,10.4C461.6,368.2,455.6,385.9,446.5,402.5z"/>
<path class="st7" d="M458.8,81.1c2.6-3.5-0.4-7.3,0.3-10.9c18.4,20.4,25.9,45.3,29.4,71.7c2.7,20.8,4.6,41.8,0.3,62.5
	c-2.2,10.4,6.4,9.2,10.7,12.7c-2.4,0.8-4.7,1.7-7.2,2.3c-7,1.6-8.8-0.2-7.8-8c4.6-35.8,3-71.3-8.3-105.9
	C473.2,95.8,468.5,86.5,458.8,81.1z"/>
<path class="st9" d="M201.2,422c6.7,6.3,13.8,12.2,20,19c7.1,7.7,5.4,12.3-4.8,16.4c-14.1,5.6-29.3,6.3-43.8,10.3
	c-10.2,2.8-19.6,6.9-26.8,15l-3.7-0.5c6.2-9.8,15.6-14.5,26.5-17.1c17-4,33.9-8.3,51.4-12.6C214.6,440.7,203.8,433.9,201.2,422z"/>
<path class="st9" d="M135.4,492.4c-2.9,26.4-5.9,52.8-8.9,79.1c-1.6,13.7-2.4,27.4,1,41c-4.4-1.5-6.9-4.1-6.7-9.2
	c1.8-35.8,4.8-71.5,12.2-106.7C133.3,495.1,134.6,493.8,135.4,492.4z"/>
<path class="st10" d="M390.7,488l4.2,4.6c-17.9,30.7-40.1,57.7-67.7,80.2c-4.2,3.4-7.1,6-12.6,1.2c-29.8-26.8-56.7-55.9-76.4-91
	c2.2,0,4.8,2.2,6.3-1.2c9.1,2.3,10.5,11.7,15.9,17.4c1.2,1.9,2.4,3.9,3.7,5.8c13.7,20.3,31.8,36.4,48.8,53.7
	c5.6,5.7,10.5,5.7,16.1,0.2c16.4-16.1,33-32,44.9-52C380.1,501.1,380.8,490.4,390.7,488z"/>
<path class="st11" d="M133.4,568.6c-0.3-13.1,1.5-25.9,4.3-38.6c1.9,11.5,4,22.9,5.4,34.4c0.5,3.6,5.5,8.4-0.5,10.9
	C137.3,577.5,136.5,570.9,133.4,568.6z"/>
<path class="st12" d="M502.3,538.1c3.5,9.9,2.2,20.5,4.2,30.6c-3.4,2.3-4.3,9.6-10.2,6.4c-4.3-2.4-0.2-6.6,0.1-10
	C497.1,555.8,496.1,546.1,502.3,538.1z"/>
<path class="st7" d="M423.4,461.9c-0.6-1.8-1.8-4.9,1.5-4.2c11.5,2.6,23,5.5,34.3,9c4.6,1.4,2.2,2.9-0.8,3.5L423.4,461.9z"/>
<path class="st7" d="M471.5,474.5c8.6-5,21.2,4.6,22.4,17C487.6,484.2,480.6,477.9,471.5,474.5z"/>
<path class="st13" d="M176,187.2c5.8-9.9,4.7-20.9,4.9-31.7c0.7-45,34.1-69.9,77.4-56.7c23.3,7.1,46.1,15.1,71.1,12.8
	c13.5-1.2,26.2-5.4,39.2-8.6c5.7-1.4,11.2-3.2,16.9-4.6c36.8-8.4,51.8-1.4,67.8,31.5c0.3,24.8,5.6,48.9,10.1,73.2
	c5.6,30.2,3,61.1,0.1,91.7c-1.5,14-3.3,27.9-7.9,41.3c-2.6,7.5-5.9,14.9-14.7,17.3c-4.3,1.2-8.3-4.7-13.4,0.8
	c-3.1,3.3-8.3-1.7-12.3-3.9c-13.7-12.5-29.8-16-47.7-12.2c-2.9,0.7-5.9,0.6-8.6-0.5c-2.6-0.4-1-7.1-7-3.5
	c-5.5,3.3-12.9-2.8-19.1,1.3c-8.7,6.4-17.4,7.7-26.4,0.6c-3.1-2.4-6.4-3.1-10.6-2.3c-13.4,2.3-14.1,1.5-13.9-12.8
	c-2.9,5.1,3.2,10.9-0.7,16.4c-4.5,2.4-9,1-13.4,0c-20.8-4.6-36,5.3-49.8,18.9c-8,3.3-14.2-4.4-21.8-3.4c-5.1-2.5-3.7-8-5.5-12
	c-2.6-10.6-6.3-20.7-13.1-29.5c-1.2-1.8-2-3.7-2.6-5.8c-3.9-19-7.2-38-4.2-57.5c2.2-14.5-2.1-29-0.7-43.7
	C170.7,197.8,171.7,192.2,176,187.2z"/>
<path class="st14" d="M406.5,38.1c10.7-0.5,17,7.2,23.7,13.4c10,9.4,19.1,19.6,28.6,29.5c20.5,34.7,24.3,72.8,22.7,112.1
	c-0.2,5,0.6,10.1-3.7,14.8c-9.4-21.3-12.6-43.6-14.1-66.2c1.3-24.5-6.9-44.2-28.9-56.8c-2.5-1.4-5.4-3.7-7.9-3.4
	c-19.8,2.1-39.5-3.1-59.5,7.3c-19.4,10.1-41.7,18.1-64.6,12.1c-12.9-3.4-25.6-9.8-38-14c-14.2-4.8-29.8-12.4-48.5-4.3
	c-22.3,9.7-38.1,22.1-42.5,45.8c-3.3,18-4,36.5-7.6,54.6c-1.3,6.4-3.5,11.6-7.4,17.6c-5.7-39.3,0.3-75.7,17-110.6
	c8.2-17.2,25.5-26.3,35.5-41.8c4.4,0.4,6.5-4.2,10.4-4.8c13.9-2.2,24.7-11.6,38-15.7c33.8-10.4,67.9-13,102.7-6.4
	C378,24.1,393,29.9,406.5,38.1z"/>
<path class="st15" d="M216.2,356.4c11.8-20.2,30-25.6,52-22.3c4.5,0.7,9,1.2,13.5,1.7c1.1-0.8,2.5-0.9,3.7-0.4
	c7,1.6,14.3-1.6,21.3,1.2c8.8,6.2,17.6,6.2,26.5,0c4.4-1.2,9-1.5,13.5-0.9c3.8,1,7.6-0.5,11.3,0c5.7-0.7,11.5-1.3,17.2-2
	c16.8-2.2,31.1,2.4,42.3,15.4c5.3,3.6,7.2,9.9,11.4,14.7c4.5-3.4,4.2-10.4,9.9-12.4c7.2,0.5,8.7-5.4,11.1-10
	c7.6-14.5,9.7-30.8,13.6-46.5c-0.5,34.5-5.7,67.8-26.8,97.9c-0.4-4.3-0.7-7.8-1.1-11.3c-6.9,33.7-26.3,59.9-48,86.6
	c-3.3-7.6,3.7-13.9-2.2-20.7c-6.5,14.8-13.1,28.4-25.8,39.3c-1.9-4.5,2.5-8.3-1.3-13.4c-11.2,17-24.3,34.5-46.8,28.7
	c-19.8-5.1-34.7-19-40.1-40.4c-3.3,2-0.6,7.3-5,7.1c-4.1-0.2-5.1-4.3-6-7.3c-4.5-14-8.7-28.1-12-42.5c-2,13.5,5.2,26,4.3,39.8
	c-29.4-20.6-44.3-50.2-53.5-85.2c-5,6.8,2.1,11.5-1.6,15.9c-14.1-18.8-17.4-40.9-19.2-63.4c-3.2-5.9-13.9-11.8-0.1-17.8l2.4,2.7
	c4.5,10.2,6.8,21.3,12.5,31c0.8,3.2,1.5,6.4,2.3,9.6c4,1.5,7.4,4,10.5,6.7C210.7,362.2,213.3,359.6,216.2,356.4z"/>
<path class="st16" d="M262.2,505.3l-3.7-4.6c1.4-4.2,2.7-8.6,8.7-5.6c19.6,9.1,37.7,22.8,61.6,18.4c6.7-1.2,12.7-3.7,19.1-5.6
	c8.4-0.6,16.1-7.3,25.1-3.2c1.8,3.3-0.6,5.5-2.2,7.8c-10.2,13.7-21.3,26.8-33.3,39.1c-10.4,10.9-23.4,10.8-33.8-1.1
	c-10.7-12.3-23.8-22.4-32.6-36.4C268.9,510.6,265.5,507.9,262.2,505.3z"/>
<path class="st17" d="M178.4,308.3c-8.6,6-0.5,11.8,0.1,17.8c-2.5-0.7-5-4-7.5,0l-2.1,0c-4.7-3.1-7.4-7.4-7.3-13.1
	c-0.7-22.2,2-44.7-10-65.3c-2.5-4.3-6-11.1,4.8-9.9c3.6,4.8,7.6,9.5,8.9,16.1c2.5-8.3,6.5-15.4,2.1-24.5c-5.4-11.2,0.8-36.9,8.7-42
	c-5.2,36.3-4,72.5,0.9,108.7C177.5,300,177.9,304.2,178.4,308.3z"/>
<path class="st18" d="M472.2,318.6c2.7-21,0.5-42.5,6.9-63c11.2,3.2,8.1,12.4,8.6,20.1c-0.2,1.8,2.5,0.4,0.8,0.4
	c0,0-0.1-0.1-0.1-0.4c-0.6-6.9-1.3-13.6-4.3-20.3c-3.9-8.8-0.4-14.3,10.1-18.4c5.5,3,7.3,8.3,7.4,13.7c0.3,22.7-5.2,43.9-18.2,62.7
	C480.9,317.1,478,321.2,472.2,318.6z"/>
<path class="st19" d="M472.2,318.6c14.6-7,17.3-22.1,21.5-34.9c4.8-14.7,8.4-30.7,0.4-46.1c-2.4-2.7-10.7,0.9-8.1-7.4
	c-0.4-7.6,4.4-8.2,10.1-7.4c14,16.5,10.1,35.6,6.8,54c-3.6,19.8-12.4,37.3-27.1,51.5C470.3,329.9,470.3,329.9,472.2,318.6z"/>
<path class="st13" d="M372.9,505.9c-8.5-1.7-16.3,6.7-25.1,2c15.5-11,33.5-18.5,47.9-31.9c-1.7,4-3.4,8-5.1,12L376,508.6
	C374.3,508.5,373.9,506.9,372.9,505.9z"/>
<path class="st20" d="M486.1,230.2c0.7,2,0,5.4,4.3,3.6c3.7-1.6,4.2,0.8,3.7,3.8c-8.9,4.5-11.9,10.9-7.1,20.4
	c3.4,6.6,2.4,13.7,1.4,22.6c-3.7-9.6,0.8-20.1-9.3-25.1C481.5,247.1,483.8,238.6,486.1,230.2z"/>
<path class="st13" d="M267.2,495.2c-4.3-0.3-5.5,4.2-8.7,5.6l-13.9-19.1c-4.1-8.9,3.9-3.3,4.2-3C254,485.2,262.6,487.9,267.2,495.2z
	"/>
<path class="st21" d="M156.3,237.7c-0.3,2.3-7.5-0.8-3.2,5.9c13.8,21.5,13.2,45.8,10.8,70.1c-5.1,1.8-8.3-1.6-10.3-5
	c-12.8-21.4-21.2-43.6-13.7-69.3c2.4-8,6.2-10.4,13.7-7.1L156.3,237.7z"/>
<path class="st22" d="M153.6,232.3c-10.4-1.7-9.5,7-11.4,12.7c-6.5,20.4,5,56.2,21.7,68.7c-1.3,5.3,7.6,6.5,4.9,12.3
	c-4,7.6-6.9,0.3-8.7-1.4c-13.7-13.1-20.6-30.1-24.3-48.2c-2.8-13.9-4.8-27.9-0.2-42c2.1-6.5,5.4-11.2,12.5-12.2
	C153.4,223.7,153.4,228,153.6,232.3z"/>
<path class="st23" d="M406.5,38.1C389.6,33,373.4,25.9,356,22.1c-3.7-0.8-7.3-1.7-11-1.8c-26-0.3-52.1,0.4-76.8,8.3
	c-10.7,3.4-22.5,5-32,12.6c-3.3,2.6-8.8,7.4-14.4,2.1C275.3,8.9,331.9,5.8,390.8,27.1C396.8,29.3,403.6,31.1,406.5,38.1z"/>
<path class="st13" d="M372.9,505.9l3.1,2.7c-13.2,21.6-30.6,39.6-49.7,56c-2.6,2.3-5.3,6.1-9.5,2c-19.9-18.9-40.5-37.2-54.7-61.3
	c7.6,0.9,9.9,7,14.2,12.2c9.2,11.1,19.7,21.1,29.1,32.1c8.5,10,25.8,8.7,32.7-1.6C348.5,532.8,362.4,520.8,372.9,505.9z"/>
<path class="st24" d="M349,252.3c-0.4-4,1.5-7.4,3.3-10.6c2.6-4.3,4.9-8.4,0.9-13c1.5-3.3,4.5-5.5,7.8-5.5
	c18.7-0.2,37.4-0.6,55.6,4.1c9.3,2.4,15.9,13.3,14,21.1c-2.3,9-14.6,15.8-24.3,14.1c-9.5-1.6-18.9-1.9-28.4,1.3
	C363.9,268.6,357.3,265.6,349,252.3z"/>
<path class="st25" d="M209.2,205.7c4.3-13.7,11.8-23.1,27.6-24.2c14.1-1,27.7-0.5,40.8,5.1c4.9,2.1,10,5.7,8.6,10.8
	c-2,7.4-8.7,3.2-12.8,1.9c-9.6-3.2-19.5-5.3-29.5-6.3C230.6,191.6,219.2,196.4,209.2,205.7z"/>
<path class="st13" d="M349,252.3c8.8,9.1,18.6,12.4,31.6,9.3c7.9-2,16.7-0.8,25.1-0.3c9.8,0.5,22.1-6.9,23.2-14.5
	c1.1-7.8-9.4-18.5-19.7-19.2c-18.7-1.2-37.4-5-55.9,1.2c1.9-6.7,5.6-10,12.9-7.3c4.8,1.8,9.7,0.6,14.8-0.2c16-2.6,30.9,1.8,44.6,9.8
	c7.6,4.5,12.3,12,9.9,21.3c-2.9,11.2-15.4,13.4-21.8,12.1c-16.9-3.4-32.1,1.8-47.9,3.7C356.2,269.3,348,261,349,252.3z"/>
<path class="st26" d="M261.3,260.8c-9.6,0.1-19.3,0.2-28.9,0.5c-9.6,0.3-21.3-7.3-22.1-14.6c-0.9-8,9.3-18.3,19.8-19
	c13.7-0.9,27.6-1.2,41.4-1.6c9.4-0.2,9.1,0.1,11.7,9.4c1.7,6,9,10.4,4.7,18c-1.1,0.4-2.3,0.5-3.5,0.3c-5.8-5.1-6.5-15.2-16.2-16.5
	c-4.7-1.3-9.5-1.3-14.3-1.2c-3.1,0-6.2,0-9.2,0c-4.2,0.1-8.4-0.3-12.4,1.2c-5.2,1.9-11.2,3.5-9.7,10.7c1.4,6.7,7.5,6.8,13,6.9
	c3.3,0.1,6.7-0.1,10-0.2c5.2,0.1,10.4-0.4,15.6,0.8c1.3,0.4,2.5,1.2,3.4,2.2C264.9,260.1,264.3,261.7,261.3,260.8z"/>
<path class="st27" d="M418.3,197.3c-17.9-8.3-35.1-3.3-52.6,1.8c-3.8,1.1-9.6,5.7-12.1-0.4c-2.5-6,2.9-9.6,7.9-12.2
	c17.6-8.9,47.7-7.3,59.5,3.2C422.5,193.1,424.5,196.6,418.3,197.3z"/>
<path class="st28" d="M262,157.2c38.6,3,77.2,3.9,115.8-0.1C339.3,166.8,300.7,167,262,157.2z"/>
<path class="st29" d="M332.6,338.6c-8.5,7.2-17,7.5-25.5,0c-6.8-5.4-14.9,1-22-2.4l-3.5-0.5c-3.3-7.1-3.2-13.9,1.5-20.9
	c2.5,3.5-0.1,6.2,0.1,8.8c0.5,6.1,1,12.5,10.2,7.8c3.7-1.9,8.4-3.4,11.8,0c8.7,8.7,17.7,7.3,27.2,1.7c1.5,1,2,3,1,4.5
	C333.3,338,333,338.3,332.6,338.6L332.6,338.6z"/>
<path class="st30" d="M363.8,145c-20.2,9.6-68.5,9.6-87.8,0.8C305.2,149.7,334.5,152,363.8,145z"/>
<path class="st31" d="M438.8,351.4c-3.5,6.4-4.6,14.1-10.3,20.1c-3.8-7.8-7.4-15.1-11-22.4c4.8,1.1,9.3,7.8,14.5-0.8
	C434.5,344,434.9,353.6,438.8,351.4z"/>
<path class="st32" d="M216.2,356.4c-1.1,3.6-2.1,7.1-3.6,12.2c-3.9-8.5-14.5-8.2-17-17C203.6,348.1,209.4,354.4,216.2,356.4z"/>
<path class="st33" d="M332.4,335.8v-2.6c2.4-3.6,5.9-4.8,9.5-2.7c8.2,4.8,13.4,2.7,15.3-7.3c4.8,5,0.2,8.7,0.6,12.5
	c-2.8,4-6.7,3-10.6,2.6C342.9,334.5,337.3,337.6,332.4,335.8z"/>
<path class="st32" d="M193.3,341.9c-10.5-7.7-10.2-19.9-12.5-31C188.1,320,191.9,330.5,193.3,341.9z"/>
<path class="st34" d="M349.7,296.1c-8.5-9.7-10.2-21.1-7.8-33.5C344.4,273.8,347.1,285,349.7,296.1z"/>
<path class="st35" d="M287.5,261.8c-3.6,8.3-7.4,16.6-18.7,14.8C275.7,272.5,280.2,265.5,287.5,261.8z"/>
<path class="st36" d="M283.2,252.5l4.8,0.9c-7.1,8.8-15.6,12.9-26.7,7.4l3-2.6C269.8,253.5,276.5,253.1,283.2,252.5z"/>
<path class="st37" d="M418.3,197.3c3-1.8,2.5-4.8,2.7-7.6c5.3,4.1,7.7,10,8.9,17.1L418.3,197.3z"/>
<path class="st4" d="M390.6,360.4c10.4,0.9,6.8,9.3,6.5,14.2c-1.7,25.2-12.6,46.4-30.7,63.9c-3.8,3.9-8.6,6.7-13.9,8.1
	c-4.8,1.2-11.3,3-14.3-1.2c-7.3-10-16.4-7.1-25.7-5.9c-2.2,1.7-4.9,2.7-7.7,2.8c-10.1,9.1-20.5,6-29.5-1.1
	c-16.1-12.7-27.3-29-31.2-49.6c-2.6-6.5-0.6-13.3-1.1-19.9c-0.3-3.5,0.1-7.2,4.2-8.1c3.8-0.8,6.7,1.8,8,4.8
	c3.7,8.9,8.2,17.5,13.5,25.6c5.6,8.5,9.1,19.4,20.9,22.1c1.2,0.2,2.5,0.5,3.7,0.8c11.1,4,22.1,7.3,34.4,5.5
	c17.2-2.4,29.6-10.3,37.6-26c4.7-9.4,9.4-18.8,14.6-27.9C382.2,364.5,383.6,358.7,390.6,360.4z"/>
<path class="st38" d="M390.6,360.4c-8.2,3.9-8.7,12.8-12.7,19.5c-3.9,6.4-7.2,13.3-10.9,19.8c-15.3,26.3-48.1,34.9-74.8,19.6
	c-1.5-1.8-1.3-3.6,0-5.4c11.2-1.2,21.9,3.6,33.1,2.4c8.9-0.9,17.3-2.2,24.2-8.3c6.8-11.4,15.7-21.5,19.3-34.6
	c1.8-6.8-3.4-4.2-5.8-3.8c-15,2.3-30,2.9-45.2,2.9c-13.4,0-26.9-0.9-40.2-2.9c-3.9-0.6-8.9-2.5-9.2,4.5c-0.8,3.3-2.7,5.6-6.4,5.7
	c-5.7-7.5-11.9-14.5-15.6-23.3c1.3-3.5,3.9-5.2,7.6-5.2c13.5,4.4,27.5,7.1,41.6,8.1c16.1,2.8,32.5,2.8,48.5-0.1
	c13.2,0.2,25.7-5.5,38.9-5.5C387.5,354,390,356.2,390.6,360.4z"/>
<path class="st13" d="M246.5,356.5c7.9,5.7,11.2,14.6,16.1,22.4c4.5,2.1,6.8,6,8.8,10.2c5,10.8,13.3,19.6,18.5,30.3
	c-15.5-1-17.9-15.6-24.6-25c-4.8-6.8-10.2-14.1-11.5-23.2c-0.4-2.8-2.8-5.9-6-5.5c-3.5,0.5-3.5,4.2-3.5,7.1
	c-0.1,6.3,0,12.6-0.1,18.9C241.2,379.8,236.3,367.6,246.5,356.5z"/>
<path class="st13" d="M345.4,361.6c-17,4-34.1,3.7-51.1,0c0.5-1.8,1.9-3.1,3.1-4.6c15,1.9,30,1.1,45.1,0
	C343.5,358.5,344.9,359.8,345.4,361.6z"/>
<path class="st13" d="M297.3,357c2,3.6,0.1,4.5-3.1,4.6c-13.9-1.2-28.5,0-40.2-10.3C268.9,350.5,282.9,355.6,297.3,357z"/>
<path class="st13" d="M345.4,361.6c-3.2-0.1-5-1.1-3-4.5c9.7-1.8,19.3-3.9,29-5.1c3.8-0.5,8.8-4,11.8,1.9
	C371.3,360,358.5,361.5,345.4,361.6z"/>
<path class="st15" d="M304.8,442.4c1-5.1,4.6-3.1,7.7-2.8c-4.5,11.4-1.6,23.6-3.5,37.6C305,464.3,310.3,452.7,304.8,442.4z"/>
<path class="st39" d="M285.2,336.3c7.2,1.8,15.6-7.1,22,2.4C299.8,337.9,292.1,340.6,285.2,336.3z"/>
<path class="st40" d="M332.4,335.8c5.4-1.9,10.9-4.5,14.9,2.4l-14.7,0.4C332.6,337.7,332.5,336.8,332.4,335.8z"/>
<path class="st41" d="M383.3,240.1c-4.6,0.5-4,2.9-2.4,5.9c2.1,3.8,5.5,4.6,9.5,4.4c4-0.2,6.2-2.7,6.5-6.2c0.5-4.7-1.4-10.7,7.1-8.7
	c5.8,9.3,4.7,13.8-5.4,22.1l-18.8-0.2c-12.1-3.4-8.8-14.8-12-22.8c4-3.4,8.7-1.7,13.2-1.6C382.8,235,384.8,237,383.3,240.1z"/>
<path class="st42" d="M367.8,234.6c3.2,0.3,5.7,1.1,4.7,5.3c-1.6,7.4,1.9,12.9,7.2,17.6c-2.1,0-4.2,0.2-6.3,0.5
	c-7.2,1.4-15.5,0.5-17.3-6.5C354.4,244,359.9,237.5,367.8,234.6z"/>
<path class="st43" d="M398.6,257.6c3.6-6.9,9.6-13.3,5.4-22.1c9.1-1.9,16.6,2.4,16.8,10.5c0.2,9.1-7.8,12.9-17.1,11.7
	C402,257.6,400.3,257.6,398.6,257.6z"/>
<path class="st44" d="M383.3,240.1c-1.5-2.1-3.9-4-2.2-7.1c3.1,0.7,8.1-2.7,9.1,2.5C390.8,239.3,387,240.5,383.3,240.1z"/>
<path class="st45" d="M253.9,232.9c5.2,0.4,10.8-2.5,15.5,1.8c6.2,10.5,1.7,17.5-7.4,23.1l-18.4-0.3c-10.6-4.1-9.6-14.4-12.1-22.8
	c3.9-3.8,8.6-1.9,13.1-1.8c2.1,2.1,3.6,4.4,3.6,7.5c0.2,3.6,1.4,7.2,5.7,5c4.8-2.4,1.9-6.1,0.1-9.2
	C253.4,235.1,253.4,233.9,253.9,232.9z"/>
<path class="st46" d="M231.4,234.7c3,0.3,6,0.3,5.1,4.9c-1.4,7.4,2.5,12.8,7,18c-4.5,0.1-9,0.3-13.6,0.3c-7,0-11.7-5.4-12-10.4
	C217.4,239.7,223.7,235.6,231.4,234.7z"/>
<path class="st47" d="M262,257.8c6.1-6.5,8.2-14.3,7.4-23.1c10.3,1.5,13.4,8.6,13.8,17.8c-5.1,5.9-11.9,6-18.9,5.7
	C263.6,257.8,262.8,257.7,262,257.8z"/>
<path class="st48" d="M246.9,240c-1.1-2.3-3.6-4-2.4-7.1l9.4,0c0.1,0.8,0.3,1.6,0.7,2.3C254.3,240.4,252.1,242.7,246.9,240z"/>
<path class="st49" d="M289.8,419.4c-13.7-10.4-19.2-26.3-27.2-40.5l4.4-5.2c3.3-1.1,5.8,0.3,8,2.5c3,10.9,8.7,20.7,13.6,30.7
	c1.3,2.3,4,3.8,3.6,7c0,1.8-0.1,3.6-0.2,5.3C291.4,419.4,290.6,419.4,289.8,419.4z"/>
<path class="st50" d="M287.1,409.2c-4.6-8.5-9.3-17-14-25.5c-1.5-2.7,0.3-4.7,1.3-6.8c4.3-2.7,9.1-1.9,13.5-1.1
	c23.1,3.8,46.1,2.8,68.9-1.9c4.5-0.9,9.1-2.1,13.5,0.5c1.5,8.1-4.3,13.1-7.9,19l-9.6,15.8C331,415,309.1,414.8,287.1,409.2z"/>
<path class="st51" d="M370.4,374.3c-31.8,7.9-63.8,9-95.9,2.5l-7.5-3.2l-7.1-10.8c40.7,8.4,79,9.3,117.7,0
	C377.9,369.5,373.7,371.6,370.4,374.3z"/>
<path class="st52" d="M287.1,409.2c9.8-3.6,19.2,2.3,29.1,1.2c12.1-1.4,24.4-0.9,36.7-1.2c-19.1,16-39.7,12.9-60.7,4.8L287.1,409.2z
	"/>
<path class="st53" d="M246.9,240c4.1,0.9,6.6-0.8,7.7-4.8c5.7,1.2,7.9,4.8,5.6,9.9c-2.1,4.6-6.6,6.7-11.5,4.4
	C244.4,247.5,241.9,244.1,246.9,240z"/>
</svg>
